<svg width="70" height="74" viewBox="0 0 70 74" fill="none" xmlns="http://www.w3.org/2000/svg">
<path d="M25.0544 69.2414V67.8912C25.0544 67.289 24.5617 66.7964 23.9596 66.7964H11.917C11.3149 66.7964 10.8223 67.289 10.8223 67.8912V71.9054C10.8223 72.5075 11.3149 73.0001 11.917 73.0001H19.9272C20.803 73.0001 21.6423 72.6535 22.2627 72.0331L25.0544 69.2414Z" fill="#92D6E9"/>
<path opacity="0.3" d="M23.9596 66.7964H11.917C11.3149 66.7964 10.8223 67.289 10.8223 67.8912V71.6134H22.6824L25.0544 69.2414V67.8912C25.0544 67.289 24.5617 66.7964 23.9596 66.7964Z" fill="#0A1E2B" stroke="#0A1E2B" stroke-width="1.09478" stroke-miterlimit="10" stroke-linecap="round" stroke-linejoin="round"/>
<path d="M39.834 69.2414V67.8912C39.834 67.289 40.3266 66.7964 40.9288 66.7964H52.9713C53.5735 66.7964 54.0661 67.289 54.0661 67.8912V71.9054C54.0661 72.5075 53.5735 73.0001 52.9713 73.0001H44.9612C44.0854 73.0001 43.246 72.6535 42.6257 72.0331L39.834 69.2414Z" fill="#92D6E9"/>
<path opacity="0.3" d="M52.9713 66.7964H40.9288C40.3266 66.7964 39.834 67.289 39.834 67.8912V69.2414L42.206 71.6134H54.0661V67.8912C54.0661 67.289 53.5735 66.7964 52.9713 66.7964Z" fill="#0A1E2B" stroke="#0A1E2B" stroke-width="1.09478" stroke-miterlimit="10" stroke-linecap="round" stroke-linejoin="round"/>
<path d="M25.0544 69.2414V67.8912C25.0544 67.289 24.5617 66.7964 23.9596 66.7964H11.917C11.3149 66.7964 10.8223 67.289 10.8223 67.8912V71.9054C10.8223 72.5075 11.3149 73.0001 11.917 73.0001H19.9272C20.803 73.0001 21.6423 72.6535 22.2627 72.0331L25.0544 69.2414Z" stroke="#212552" stroke-width="1.09478" stroke-miterlimit="10" stroke-linecap="round" stroke-linejoin="round"/>
<path d="M39.834 69.2414V67.8912C39.834 67.289 40.3266 66.7964 40.9288 66.7964H52.9713C53.5735 66.7964 54.0661 67.289 54.0661 67.8912V71.9054C54.0661 72.5075 53.5735 73.0001 52.9713 73.0001H44.9612C44.0854 73.0001 43.246 72.6535 42.6257 72.0331L39.834 69.2414Z" stroke="#212552" stroke-width="1.09478" stroke-miterlimit="10" stroke-linecap="round" stroke-linejoin="round"/>
<path d="M56.1647 69.2596H8.72431C4.69187 69.2596 1.42578 65.9936 1.42578 61.9611V14.5207C1.42578 10.4883 4.69187 7.22217 8.72431 7.22217H56.1647C60.1972 7.22217 63.4633 10.4883 63.4633 14.5207V61.9611C63.4633 65.9936 60.1972 69.2596 56.1647 69.2596Z" fill="#CBEDF9"/>
<path d="M56.1647 7.22217H8.72431C4.69187 7.22217 1.42578 10.4883 1.42578 14.5207V18.7173C1.42578 14.6849 4.69187 11.4188 8.72431 11.4188H56.1647C60.1972 11.4188 63.4633 14.6849 63.4633 18.7173V14.5207C63.4633 10.4883 60.1972 7.22217 56.1647 7.22217Z" fill="#E8F9FF"/>
<path opacity="0.23" d="M44.9785 7.14941H49.6496L46.493 13.7911L44.9785 7.14941Z" fill="#0A1E2B" stroke="#0A1E2B" stroke-width="1.09478" stroke-miterlimit="10" stroke-linecap="round" stroke-linejoin="round"/>
<path d="M56.1647 65.0632H8.72431C4.69187 65.0632 1.42578 61.7971 1.42578 57.7646V61.9613C1.42578 65.9937 4.69187 69.2598 8.72431 69.2598H56.1647C60.1972 69.2598 63.4633 65.9937 63.4633 61.9613V57.7646C63.4633 61.7971 60.1972 65.0632 56.1647 65.0632Z" fill="#92D6E9"/>
<path d="M56.1647 69.2596H8.72431C4.69187 69.2596 1.42578 65.9936 1.42578 61.9611V14.5207C1.42578 10.4883 4.69187 7.22217 8.72431 7.22217H56.1647C60.1972 7.22217 63.4633 10.4883 63.4633 14.5207V61.9611C63.4633 65.9936 60.1972 69.2596 56.1647 69.2596Z" stroke="#212552" stroke-width="1.09478" stroke-miterlimit="10" stroke-linecap="round" stroke-linejoin="round"/>
<path d="M53.9749 13.791H10.9136C9.30788 13.791 7.99414 15.1048 7.99414 16.7104V18.1701C7.99414 16.5645 9.30788 15.7981 10.9136 15.7981H53.9749C55.5805 15.7981 56.8943 16.5645 56.8943 18.1701V16.7104C56.8943 15.0865 55.5805 13.791 53.9749 13.791Z" fill="#E8F9FF"/>
<path d="M53.9749 60.3188H10.9136C9.30788 60.3188 7.99414 59.0051 7.99414 57.3994V59.7714C7.99414 61.3771 9.30788 62.6908 10.9136 62.6908H53.9749C55.5805 62.6908 56.8943 61.3771 56.8943 59.7714V57.3994C56.8943 59.0051 55.5805 60.3188 53.9749 60.3188Z" fill="#92D6E9"/>
<path d="M10.9136 62.6911C9.30788 62.6911 7.99414 61.3774 7.99414 59.7717V16.7104C7.99414 15.1048 9.30788 13.791 10.9136 13.791H53.9749C55.5805 13.791 56.8943 15.1048 56.8943 16.7104V59.7717C56.8943 61.3774 55.5805 62.6911 53.9749 62.6911H10.9136Z" stroke="#212552" stroke-width="1.09478" stroke-miterlimit="10" stroke-linecap="round" stroke-linejoin="round"/>
<path opacity="0.23" d="M51.6573 55.593H51.2924C50.8909 55.593 50.5625 55.2646 50.5625 54.8632V27.1288C50.5625 26.7274 50.8909 26.3989 51.2924 26.3989H51.6573C52.0587 26.3989 52.3871 26.7274 52.3871 27.1288V54.8632C52.3871 55.2646 52.0587 55.593 51.6573 55.593Z" fill="#0A1E2B" stroke="#0A1E2B" stroke-width="1.09478" stroke-miterlimit="10" stroke-linecap="round" stroke-linejoin="round"/>
<path d="M51.6573 51.9441H51.2924C50.8909 51.9441 50.5625 51.6157 50.5625 51.2142V23.4799C50.5625 23.0784 50.8909 22.75 51.2924 22.75H51.6573C52.0587 22.75 52.3871 23.0784 52.3871 23.4799V51.2142C52.3871 51.6157 52.0587 51.9441 51.6573 51.9441Z" fill="#92D6E9"/>
<path d="M51.6573 51.9441H51.2924C50.8909 51.9441 50.5625 51.6157 50.5625 51.2142V23.4799C50.5625 23.0784 50.8909 22.75 51.2924 22.75H51.6573C52.0587 22.75 52.3871 23.0784 52.3871 23.4799V51.2142C52.3871 51.6157 52.0587 51.9441 51.6573 51.9441Z" stroke="#212552" stroke-width="1.09478" stroke-miterlimit="10" stroke-linecap="round" stroke-linejoin="round"/>
<path opacity="0.23" d="M32.4441 51.561C38.9943 51.561 44.3042 46.2512 44.3042 39.7009C44.3042 33.1507 38.9943 27.8408 32.4441 27.8408C25.8938 27.8408 20.584 33.1507 20.584 39.7009C20.584 46.2512 25.8938 51.561 32.4441 51.561Z" fill="#0A1E2B" stroke="#0A1E2B" stroke-width="1.09478" stroke-miterlimit="10" stroke-linecap="round" stroke-linejoin="round"/>
<path d="M32.4441 50.1011C38.9943 50.1011 44.3042 44.7912 44.3042 38.241C44.3042 31.6907 38.9943 26.3809 32.4441 26.3809C25.8938 26.3809 20.584 31.6907 20.584 38.241C20.584 44.7912 25.8938 50.1011 32.4441 50.1011Z" fill="#CBEDF9"/>
<path d="M32.4441 50.1011C38.9943 50.1011 44.3042 44.7912 44.3042 38.241C44.3042 31.6907 38.9943 26.3809 32.4441 26.3809C25.8938 26.3809 20.584 31.6907 20.584 38.241C20.584 44.7912 25.8938 50.1011 32.4441 50.1011Z" stroke="#212552" stroke-width="1.09478" stroke-miterlimit="10" stroke-linecap="round" stroke-linejoin="round"/>
<path d="M32.4448 48.0942C37.8864 48.0942 42.2978 43.6828 42.2978 38.2412C42.2978 32.7996 37.8864 28.3882 32.4448 28.3882C27.0032 28.3882 22.5918 32.7996 22.5918 38.2412C22.5918 43.6828 27.0032 48.0942 32.4448 48.0942Z" fill="#92D6E9"/>
<path d="M32.4453 30.7598V45.7217" stroke="#212552" stroke-width="1.82463" stroke-miterlimit="10" stroke-linecap="round" stroke-linejoin="round"/>
<path d="M39.9249 38.2412H24.9629" stroke="#212552" stroke-width="1.82463" stroke-miterlimit="10" stroke-linecap="round" stroke-linejoin="round"/>
<path d="M37.7352 32.9497L27.1523 43.5326" stroke="#212552" stroke-width="1.82463" stroke-miterlimit="10" stroke-linecap="round" stroke-linejoin="round"/>
<path d="M37.7352 43.5326L27.1523 32.9497" stroke="#212552" stroke-width="1.82463" stroke-miterlimit="10" stroke-linecap="round" stroke-linejoin="round"/>
<path opacity="0.3" d="M32.4444 46.9444C29.9264 46.9444 27.8828 44.9009 27.8828 42.3829V37.8213H37.006V42.3829C37.006 44.9009 34.9624 46.9444 32.4444 46.9444Z" fill="#0A1E2B" stroke="#0A1E2B" stroke-width="1.09478" stroke-miterlimit="10" stroke-linecap="round" stroke-linejoin="round"/>
<path opacity="0.23" d="M7.99486 31.3986C7.19202 31.3986 6.53516 30.7418 6.53516 29.9389V25.5598C6.53516 24.757 7.19202 24.1001 7.99486 24.1001C8.7977 24.1001 9.45457 24.757 9.45457 25.5598V29.9389C9.45457 30.7418 8.7977 31.3986 7.99486 31.3986Z" fill="#0A1E2B" stroke="#0A1E2B" stroke-width="1.09478" stroke-miterlimit="10" stroke-linecap="round" stroke-linejoin="round"/>
<path opacity="0.23" d="M7.99486 55.2101C7.19202 55.2101 6.53516 54.5533 6.53516 53.7504V49.3713C6.53516 48.5685 7.19202 47.9116 7.99486 47.9116C8.7977 47.9116 9.45457 48.5685 9.45457 49.3713V53.7504C9.45457 54.5533 8.7977 55.2101 7.99486 55.2101Z" fill="#0A1E2B" stroke="#0A1E2B" stroke-width="1.09478" stroke-miterlimit="10" stroke-linecap="round" stroke-linejoin="round"/>
<path d="M7.99486 29.9392C7.19202 29.9392 6.53516 29.2823 6.53516 28.4794V24.1003C6.53516 23.2975 7.19202 22.6406 7.99486 22.6406C8.7977 22.6406 9.45457 23.2975 9.45457 24.1003V28.4794C9.45457 29.2823 8.7977 29.9392 7.99486 29.9392Z" fill="#92D6E9"/>
<path d="M7.99486 53.8415C7.19202 53.8415 6.53516 53.1846 6.53516 52.3818V48.0027C6.53516 47.1998 7.19202 46.543 7.99486 46.543C8.7977 46.543 9.45457 47.1998 9.45457 48.0027V52.3818C9.45457 53.1846 8.7977 53.8415 7.99486 53.8415Z" fill="#92D6E9"/>
<path d="M7.99486 29.9392C7.19202 29.9392 6.53516 29.2823 6.53516 28.4794V24.1003C6.53516 23.2975 7.19202 22.6406 7.99486 22.6406C8.7977 22.6406 9.45457 23.2975 9.45457 24.1003V28.4794C9.45457 29.2823 8.7977 29.9392 7.99486 29.9392Z" stroke="#212552" stroke-width="1.09478" stroke-miterlimit="10" stroke-linecap="round" stroke-linejoin="round"/>
<path d="M7.99486 53.8415C7.19202 53.8415 6.53516 53.1846 6.53516 52.3818V48.0027C6.53516 47.1998 7.19202 46.543 7.99486 46.543C8.7977 46.543 9.45457 47.1998 9.45457 48.0027V52.3818C9.45457 53.1846 8.7977 53.8415 7.99486 53.8415Z" stroke="#212552" stroke-width="1.09478" stroke-miterlimit="10" stroke-linecap="round" stroke-linejoin="round"/>
<path d="M32.4444 42.8028C34.9637 42.8028 37.006 40.7605 37.006 38.2413C37.006 35.722 34.9637 33.6797 32.4444 33.6797C29.9251 33.6797 27.8828 35.722 27.8828 38.2413C27.8828 40.7605 29.9251 42.8028 32.4444 42.8028Z" fill="#FFEA9E"/>
<path d="M32.4459 40.2844C33.5747 40.2844 34.4895 39.3696 34.4895 38.2409C34.4895 37.1123 33.5747 36.1973 32.4459 36.1973C31.3172 36.1973 30.4023 37.1123 30.4023 38.2409C30.4023 39.3696 31.3172 40.2844 32.4459 40.2844Z" fill="#EDC75D"/>
<path d="M32.4447 42.4377C34.7625 42.4377 36.6414 40.5589 36.6414 38.2411C36.6414 35.9233 34.7625 34.0444 32.4447 34.0444C30.1269 34.0444 28.248 35.9233 28.248 38.2411C28.248 40.5589 30.1269 42.4377 32.4447 42.4377Z" stroke="#212552" stroke-width="1.45971" stroke-miterlimit="10" stroke-linecap="round" stroke-linejoin="round"/>
<path d="M46.8601 13.7909H34.3613V4.26637C34.3613 3.53652 34.9452 2.95264 35.6751 2.95264H45.5281C46.2579 2.95264 46.8418 3.53652 46.8418 4.26637L46.8601 13.7909Z" fill="#5F9E71" stroke="#212552" stroke-width="1.09478" stroke-miterlimit="10" stroke-linecap="round" stroke-linejoin="round"/>
<path d="M44.3963 5.21533H41.7324C41.7324 5.83571 41.2397 6.32836 40.6193 6.32836C39.999 6.32836 39.5063 5.83571 39.5063 5.21533H36.8241C36.5139 5.21533 36.2402 5.47078 36.2402 5.79922V13.7911H44.962V5.79922C44.9802 5.47078 44.7065 5.21533 44.3963 5.21533Z" fill="#90C49E"/>
<path d="M40.6198 14.4479C42.1313 14.4479 43.3567 13.2798 43.3567 11.8387C43.3567 10.3976 42.1313 9.22949 40.6198 9.22949C39.1082 9.22949 37.8828 10.3976 37.8828 11.8387C37.8828 13.2798 39.1082 14.4479 40.6198 14.4479Z" fill="white"/>
<path d="M46.8601 13.7909H34.3613V4.26637C34.3613 3.53652 34.9452 2.95264 35.6751 2.95264H45.5281C46.2579 2.95264 46.8418 3.53652 46.8418 4.26637L46.8601 13.7909Z" stroke="#212552" stroke-width="1.09478" stroke-miterlimit="10" stroke-linecap="round" stroke-linejoin="round"/>
<path d="M68.5744 10.4699L64.8887 9.95898" stroke="#212552" stroke-width="1.09478" stroke-miterlimit="10" stroke-linecap="round" stroke-linejoin="round"/>
<path d="M59.7974 4.68576L59.25 1" stroke="#212552" stroke-width="1.09478" stroke-miterlimit="10" stroke-linecap="round" stroke-linejoin="round"/>
<path d="M63.4473 6.01779L66.093 3.37207" stroke="#212552" stroke-width="1.09478" stroke-miterlimit="10" stroke-linecap="round" stroke-linejoin="round"/>
</svg>
