<svg width="56" height="56" viewBox="0 0 56 56" fill="none" xmlns="http://www.w3.org/2000/svg">
<g clip-path="url(#clip0_837_43264)">
<path d="M48.9501 9.85312C48.9501 7.8718 47.3438 6.26562 45.3624 6.26562H43.0273C41.5825 6.26562 13.0257 6.26562 12.0712 6.26562C11.1967 6.26562 5.54052 6.26562 4.40586 6.26562C2.42486 6.26562 0.818359 7.8718 0.818359 9.85312V50.8095C0.818359 51.8349 1.24941 52.7592 1.93913 53.413H45.3625V54.3971H51.6467C53.1907 54.3971 54.5068 53.4216 55.0127 52.0532C55.4318 50.9452 55.5801 53.0635 48.9501 9.85312Z" fill="#BABABA"/>
<path d="M51.1417 50.8096V24.1316L48.9509 9.85312C48.9509 7.8718 47.3445 6.26562 45.3632 6.26562C44.1885 6.26562 15.8985 6.26562 14.2627 6.26562H12.0719H11.1956C9.16627 6.26562 9.84898 6.26562 6.59737 6.26562C4.61627 6.26562 3.00977 7.8718 3.00977 9.85312V50.8095C3.00977 51.8349 3.44081 52.7592 4.13053 53.413H45.3632V54.3971H47.5539C49.5353 54.3973 51.1417 52.791 51.1417 50.8096Z" fill="#A8A8A8"/>
<path d="M45.3625 6.26562C44.1071 6.26562 14.1387 6.26562 12.0713 6.26562C10.8335 6.26562 5.2428 6.26562 4.40597 6.26562C2.42486 6.26562 0.818359 7.8718 0.818359 9.85312V50.8095C0.818359 52.7909 2.42486 54.3971 4.40597 54.3971H45.3624C47.3438 54.3971 48.9501 52.7909 48.9501 50.8095V9.85312C48.9501 7.8718 47.3438 6.26562 45.3625 6.26562Z" fill="#E6E6E6"/>
<path d="M3.00914 50.8096V9.85312C3.00914 7.8718 4.61564 6.26562 6.59675 6.26562C5.36191 6.26562 5.64475 6.26562 4.40597 6.26562C2.42486 6.26562 0.818359 7.8718 0.818359 9.85312V50.8095C0.818359 52.7909 2.42486 54.3971 4.40597 54.3971H6.59675C4.61564 54.3973 3.00914 52.791 3.00914 50.8096Z" fill="#CCCBCA"/>
<path d="M45.3625 6.26562C43.9373 6.26562 14.4502 6.26562 12.0713 6.26562C3.57756 6.26562 12.357 6.26562 4.40597 6.26562C2.42486 6.26562 0.818359 7.8718 0.818359 9.85312V19.0687H48.9501V9.85312C48.9501 7.8718 47.3438 6.26562 45.3625 6.26562Z" fill="#CF6F64"/>
<path d="M3.00914 9.85312C3.00914 7.8718 4.61564 6.26562 6.59675 6.26562C5.36191 6.26562 5.64475 6.26562 4.40597 6.26562C2.42486 6.26562 0.818359 7.8718 0.818359 9.85312V19.0687H3.00914V9.85312Z" fill="#D63322"/>
<path d="M39.2378 9.47314V10.22C39.2378 10.946 38.6493 10.9867 37.9233 10.9867H37.4852C36.7592 10.9867 36.1707 10.9459 36.1707 10.22V9.47325C35.4756 9.95833 35.0205 10.7633 35.0205 11.6751C35.0205 13.1572 36.2221 14.3588 37.7042 14.3588C40.3327 14.3588 41.3769 10.9661 39.2378 9.47314Z" fill="#414356"/>
<path d="M25.6548 9.47314V10.22C25.6548 10.946 25.0663 10.8772 24.3403 10.8772H23.9022C23.1762 10.8772 22.5877 10.946 22.5877 10.22V9.47325C21.8926 9.95833 21.4375 10.7633 21.4375 11.6751C21.4375 13.1572 22.6391 14.3588 24.1212 14.3588C25.6034 14.3588 26.805 13.1573 26.805 11.6751C26.805 10.7632 26.3498 9.95822 25.6548 9.47314Z" fill="#414356"/>
<path d="M12.0717 9.47314V10.22C12.0717 11.0665 11.275 10.9867 10.319 10.9867C9.59311 10.9867 9.00457 10.9459 9.00457 10.22V9.47325C6.86333 10.9675 7.91289 14.3588 10.5381 14.3588C12.0203 14.3588 13.2218 13.1573 13.2218 11.6751C13.2218 10.7632 12.7666 9.95822 12.0717 9.47314Z" fill="#414356"/>
<path d="M37.3209 11.675C37.3209 11.6241 37.3228 11.5739 37.3256 11.5237C36.675 11.4448 36.1707 10.8917 36.1707 10.2198V9.47314C35.4756 9.95822 35.0205 10.7632 35.0205 11.675C35.0205 13.1571 36.2221 14.3587 37.7042 14.3587C38.1159 14.3587 38.5057 14.2657 38.8544 14.1C37.9478 13.6693 37.3209 12.7455 37.3209 11.675Z" fill="#2F3242"/>
<path d="M23.7379 11.675C23.7379 11.6241 23.7398 11.5739 23.7426 11.5237C23.092 11.4448 22.5877 10.8917 22.5877 10.2198V9.47314C21.8926 9.95822 21.4375 10.7632 21.4375 11.675C21.4375 13.1571 22.6391 14.3587 24.1212 14.3587C24.5329 14.3587 24.9227 14.2657 25.2714 14.1C24.3648 13.6693 23.7379 12.7455 23.7379 11.675Z" fill="#2F3242"/>
<path d="M10.1596 11.5237C9.50912 11.4448 9.00468 10.8917 9.00468 10.2198V9.47314C8.3096 9.95822 7.85449 10.7632 7.85449 11.675C7.85449 13.6515 9.91895 14.9409 11.6884 14.1C10.727 13.6432 10.0972 12.6447 10.1596 11.5237Z" fill="#2F3242"/>
<path d="M48.9498 19.0688H0.818359V22.1359H48.9498V19.0688Z" fill="#E58A7B"/>
<path d="M3.00914 19.0688H0.818359V22.1359H3.00914V19.0688Z" fill="#DD6464"/>
<path d="M10.7575 1.60254C11.4835 1.60254 12.072 2.19109 12.072 2.91701V10.2196C12.072 10.9457 11.4835 11.5341 10.7575 11.5341H10.3194C9.59343 11.5341 9.00488 10.9457 9.00488 10.2196V2.91701C9.00488 2.19109 9.59343 1.60254 10.3194 1.60254H10.7575Z" fill="#585A60"/>
<path d="M24.3395 1.60254C25.0656 1.60254 25.654 2.19109 25.654 2.91701V10.2196C25.654 10.9457 25.0656 11.5341 24.3395 11.5341H23.9014C23.1755 11.5341 22.5869 10.9457 22.5869 10.2196V2.91701C22.5869 2.19109 23.1755 1.60254 23.9014 1.60254H24.3395Z" fill="#585A60"/>
<path d="M37.9225 1.60254C38.6486 1.60254 39.237 2.19109 39.237 2.91701V10.2196C39.237 10.9457 38.6486 11.5341 37.9225 11.5341H37.4844C36.7585 11.5341 36.1699 10.9457 36.1699 10.2196V2.91701C36.1699 2.19109 36.7585 1.60254 37.4844 1.60254H37.9225Z" fill="#585A60"/>
<path d="M10.7575 1.60254C11.4835 1.60254 12.072 2.19109 12.072 2.91701V10.2196C12.072 10.9457 11.4835 11.5341 10.7575 11.5341H10.3194C9.59343 11.5341 9.00488 10.9457 9.00488 10.2196V2.91701C9.00488 2.19109 9.59343 1.60254 10.3194 1.60254H10.7575Z" fill="#585A60"/>
<path d="M24.3395 1.60254C25.0656 1.60254 25.654 2.19109 25.654 2.91701V10.2196C25.654 10.9457 25.0656 11.5341 24.3395 11.5341H23.9014C23.1755 11.5341 22.5869 10.9457 22.5869 10.2196V2.91701C22.5869 2.19109 23.1755 1.60254 23.9014 1.60254H24.3395Z" fill="#585A60"/>
<path d="M37.9225 1.60254C38.6486 1.60254 39.237 2.19109 39.237 2.91701V10.2196C39.237 10.9457 38.6486 11.5341 37.9225 11.5341H37.4844C36.7585 11.5341 36.1699 10.9457 36.1699 10.2196V2.91701C36.1699 2.19109 36.7585 1.60254 37.4844 1.60254H37.9225Z" fill="#585A60"/>
<path d="M10.5384 10.2196V2.91701C10.5384 2.38687 10.8531 1.93099 11.3051 1.72329C11.1384 1.64662 10.9532 1.60254 10.7575 1.60254H10.3194C9.59343 1.60254 9.00488 2.19109 9.00488 2.91701V10.2196C9.00488 10.9457 9.59343 11.5341 10.3194 11.5341H10.7575C10.9533 11.5341 11.1384 11.4901 11.3051 11.4134C10.8531 11.2057 10.5384 10.75 10.5384 10.2196Z" fill="#414356"/>
<path d="M24.1215 10.2196V2.91701C24.1215 2.38687 24.4362 1.93099 24.8883 1.72329C24.7215 1.64662 24.5363 1.60254 24.3405 1.60254H23.9024C23.1764 1.60254 22.5879 2.19109 22.5879 2.91701V10.2196C22.5879 10.9457 23.1764 11.5341 23.9024 11.5341H24.3405C24.5363 11.5341 24.7214 11.4901 24.8883 11.4134C24.4362 11.2057 24.1215 10.75 24.1215 10.2196Z" fill="#414356"/>
<path d="M37.7046 10.2196V2.91701C37.7046 2.38687 38.0192 1.93099 38.4713 1.72329C38.3045 1.64662 38.1193 1.60254 37.9235 1.60254H37.4854C36.7594 1.60254 36.1709 2.19109 36.1709 2.91701V10.2196C36.1709 10.9457 36.7594 11.5341 37.4854 11.5341H37.9235C38.1193 11.5341 38.3044 11.4901 38.4713 11.4134C38.0192 11.2057 37.7046 10.75 37.7046 10.2196Z" fill="#414356"/>
<path d="M49.7339 9.26066C49.4434 7.0982 47.586 5.44413 45.3656 5.44413H40.0615V2.91723C40.0615 1.73948 39.1033 0.78125 37.9256 0.78125H37.4874C36.3095 0.78125 35.3514 1.73948 35.3514 2.91723V5.44413H26.4787V2.91723C26.4787 1.73948 25.5205 0.78125 24.3427 0.78125H23.9046C22.7267 0.78125 21.7686 1.73948 21.7686 2.91723V5.44413H12.8959V2.91723C12.8959 1.73948 11.9376 0.78125 10.7599 0.78125H10.3217C9.14386 0.78125 8.18573 1.73948 8.18573 2.91723V5.44413H4.40912C1.97794 5.44413 0 7.42206 0 9.85314C0 11.105 0 50.1882 0 50.8095C0 53.2407 1.97794 55.2186 4.40912 55.2186C5.13866 55.2186 50.7946 55.2186 51.6498 55.2186C53.4872 55.2186 55.1496 54.061 55.7842 52.3439C55.8706 52.1153 56.135 51.2578 55.9139 49.8016C55.7004 48.2925 50.315 13.5503 49.7339 9.26066ZM39.5666 11.5859C39.568 11.6155 39.5688 11.6451 39.5688 11.6749C39.5688 12.7017 38.7335 13.5371 37.7066 13.5371C36.6798 13.5371 35.8445 12.7018 35.8445 11.6749C35.8445 11.6451 35.8451 11.6154 35.8467 11.5859C35.8845 11.6313 35.9247 11.6745 35.966 11.7165C35.9728 11.7233 35.9795 11.7303 35.9863 11.7371C36.0285 11.7789 36.0724 11.8186 36.1179 11.8567C36.1262 11.8637 36.1345 11.8705 36.143 11.8773C36.1891 11.915 36.2367 11.9507 36.286 11.9843C36.2936 11.9895 36.3013 11.9944 36.309 11.9994C36.3607 12.0336 36.4136 12.0665 36.4683 12.0962C36.4711 12.0977 36.474 12.099 36.4769 12.1007C36.5314 12.13 36.5872 12.1569 36.6445 12.1815C36.6506 12.1841 36.6565 12.187 36.6626 12.1896C36.7193 12.2133 36.7773 12.2343 36.8362 12.2533C36.846 12.2564 36.8558 12.2597 36.8657 12.2627C36.9238 12.2804 36.983 12.2955 37.043 12.3084C37.0536 12.3107 37.0642 12.3128 37.075 12.3148C37.1361 12.3269 37.198 12.3366 37.2609 12.3433C37.2692 12.3442 37.2775 12.3446 37.2858 12.3455C37.3523 12.3517 37.4194 12.3556 37.4874 12.3556H37.9256C37.9936 12.3556 38.0606 12.3517 38.1271 12.3455C38.1355 12.3447 38.1439 12.3443 38.1521 12.3433C38.215 12.3366 38.2769 12.3269 38.338 12.3148C38.3487 12.3128 38.3593 12.3107 38.37 12.3084C38.4301 12.2956 38.4893 12.2805 38.5472 12.2627C38.5571 12.2596 38.5669 12.2563 38.5768 12.2533C38.6357 12.2343 38.6938 12.2133 38.7504 12.1896C38.7565 12.187 38.7624 12.1841 38.7685 12.1815C38.8257 12.1569 38.8817 12.13 38.9361 12.1007C38.9389 12.0992 38.9419 12.0978 38.9447 12.0962C38.9995 12.0665 39.0522 12.0336 39.104 11.9994C39.1116 11.9944 39.1194 11.9895 39.1269 11.9843C39.1763 11.9507 39.2237 11.9149 39.27 11.8773C39.2784 11.8705 39.2867 11.8637 39.295 11.8567C39.3405 11.8185 39.3844 11.7789 39.4266 11.7371C39.4335 11.7303 39.4402 11.7233 39.447 11.7165C39.4886 11.6745 39.5288 11.6313 39.5666 11.5859ZM36.9946 2.91723C36.9946 2.64544 37.2156 2.42428 37.4875 2.42428H37.9257C38.1975 2.42428 38.4186 2.64544 38.4186 2.91723V6.26564V9.47306V10.2199C38.4186 10.4917 38.1975 10.7128 37.9257 10.7128H37.4875C37.2156 10.7128 36.9946 10.4917 36.9946 10.2199V9.47317V6.26564V2.91723ZM25.9838 11.5859C25.9852 11.6155 25.986 11.6451 25.986 11.6749C25.986 12.7017 25.1507 13.5371 24.1237 13.5371C23.0968 13.5371 22.2616 12.7018 22.2616 11.6749C22.2616 11.6451 22.2623 11.6154 22.2637 11.5859C22.3016 11.6313 22.3417 11.6745 22.383 11.7165C22.3898 11.7233 22.3965 11.7303 22.4034 11.7371C22.4455 11.7789 22.4895 11.8186 22.535 11.8567C22.5433 11.8637 22.5516 11.8705 22.56 11.8773C22.6062 11.915 22.6537 11.9507 22.7031 11.9843C22.7106 11.9895 22.7184 11.9944 22.726 11.9994C22.7778 12.0336 22.8306 12.0665 22.8853 12.0962C22.8881 12.0977 22.8911 12.099 22.8939 12.1007C22.9484 12.13 23.0044 12.1569 23.0615 12.1815C23.0676 12.1841 23.0735 12.187 23.0797 12.1896C23.1363 12.2133 23.1944 12.2343 23.2532 12.2533C23.2631 12.2564 23.2728 12.2597 23.2828 12.2627C23.3408 12.2804 23.4 12.2955 23.4601 12.3084C23.4707 12.3107 23.4813 12.3128 23.492 12.3148C23.5531 12.3269 23.615 12.3366 23.6779 12.3433C23.6862 12.3442 23.6946 12.3446 23.703 12.3455C23.7694 12.3517 23.8365 12.3556 23.9046 12.3556H24.3427C24.4107 12.3556 24.4778 12.3517 24.5443 12.3455C24.5526 12.3447 24.561 12.3443 24.5693 12.3433C24.6322 12.3366 24.6941 12.3269 24.7553 12.3148C24.766 12.3128 24.7766 12.3107 24.7872 12.3084C24.8474 12.2956 24.9065 12.2805 24.9645 12.2627C24.9744 12.2596 24.9842 12.2563 24.994 12.2533C25.053 12.2343 25.1111 12.2133 25.1676 12.1896C25.1737 12.187 25.1797 12.1841 25.1858 12.1815C25.243 12.1569 25.299 12.13 25.3533 12.1007C25.3562 12.0992 25.3591 12.0978 25.362 12.0962C25.4167 12.0665 25.4695 12.0336 25.5212 11.9994C25.5289 11.9944 25.5367 11.9895 25.5442 11.9843C25.5935 11.9507 25.641 11.9149 25.6873 11.8773C25.6957 11.8705 25.704 11.8637 25.7123 11.8567C25.7578 11.8185 25.8017 11.7789 25.8439 11.7371C25.8508 11.7303 25.8575 11.7233 25.8642 11.7165C25.9058 11.6745 25.9459 11.6313 25.9838 11.5859ZM23.4118 2.91723C23.4118 2.64544 23.6329 2.42428 23.9048 2.42428H24.3429C24.6147 2.42428 24.8359 2.64544 24.8359 2.91723V6.26564V9.47306V10.2199C24.8359 10.4917 24.6147 10.7128 24.3429 10.7128H23.9048C23.6329 10.7128 23.4118 10.4917 23.4118 10.2199V9.47317V6.26564V2.91723ZM12.4009 11.5859C12.4024 11.6155 12.4031 11.6451 12.4031 11.6749C12.4031 12.7017 11.5678 13.5371 10.5409 13.5371C9.47713 13.5371 8.62925 12.6435 8.68098 11.5859C8.84833 11.7867 9.06609 11.9675 9.30256 12.0964C9.30541 12.098 9.30836 12.0993 9.3112 12.1009C9.36567 12.1302 9.42167 12.1571 9.47877 12.1817C9.48489 12.1844 9.4908 12.1872 9.49692 12.1898C9.55358 12.2136 9.61166 12.2346 9.6705 12.2535C9.68034 12.2567 9.69008 12.2599 9.69992 12.2629C9.758 12.2806 9.81717 12.2957 9.87722 12.3086C9.88783 12.3109 9.89844 12.313 9.90916 12.3151C9.9703 12.3271 10.0322 12.3368 10.0951 12.3435C10.1034 12.3444 10.1117 12.3448 10.1201 12.3457C10.1865 12.3519 10.2537 12.3559 10.3217 12.3559H10.7599C10.8279 12.3559 10.895 12.3519 10.9615 12.3457C10.9698 12.3449 10.9782 12.3445 10.9865 12.3435C11.0494 12.3368 11.1113 12.3271 11.1724 12.3151C11.1832 12.313 11.1938 12.3109 11.2044 12.3086C11.2645 12.2958 11.3237 12.2807 11.3817 12.2629C11.3915 12.2598 11.4014 12.2565 11.4112 12.2535C11.4702 12.2346 11.5282 12.2136 11.5848 12.1898C11.5909 12.1872 11.5968 12.1844 11.6029 12.1817C11.6601 12.1571 11.7161 12.1302 11.7705 12.1009C11.7733 12.0994 11.7763 12.0981 11.7791 12.0964C11.8338 12.0667 11.8867 12.0339 11.9384 11.9996C11.946 11.9946 11.9538 11.9897 11.9614 11.9845C12.0107 11.951 12.0582 11.9151 12.1044 11.8776C12.1128 11.8707 12.1212 11.8639 12.1295 11.8569C12.175 11.8187 12.2188 11.7791 12.261 11.7373C12.2679 11.7306 12.2746 11.7236 12.2814 11.7167C12.323 11.6745 12.3631 11.6313 12.4009 11.5859ZM9.82887 2.91723C9.82887 2.64544 10.05 2.42428 10.3218 2.42428H10.76C11.0318 2.42428 11.2529 2.64544 11.2529 2.91723V6.26564C11.2529 7.6383 11.2529 8.81189 11.2529 10.2199C11.2529 10.4917 11.0318 10.7128 10.76 10.7128H10.3217C10.0499 10.7128 9.82877 10.4917 9.82877 10.2199V9.47317C9.82887 8.81287 9.82887 3.62117 9.82887 2.91723ZM1.64314 9.85314C1.64314 8.32802 2.884 7.08716 4.40923 7.08716H8.18595V9.08041C5.82083 11.2295 7.34639 15.1801 10.541 15.1801C12.4738 15.1801 14.0463 13.6077 14.0463 11.6749C14.0463 10.6813 13.6228 9.7407 12.8961 9.0803V7.08727H21.7688V9.08052C21.0421 9.74081 20.6186 10.6814 20.6186 11.675C20.6186 13.6078 22.1911 15.1802 24.1239 15.1802C26.0566 15.1802 27.6291 13.6078 27.6291 11.675C27.6291 10.6814 27.2056 9.74081 26.4789 9.08041V7.08727H35.3515V9.08052C34.6248 9.74081 34.2013 10.6814 34.2013 11.675C34.2013 13.6078 35.7738 15.1802 37.7066 15.1802C39.6394 15.1802 41.2118 13.6078 41.2118 11.675C41.2118 10.6814 40.7883 9.74081 40.0617 9.08041V7.08727H45.3657C46.8909 7.08727 48.1319 8.32812 48.1319 9.85325V18.2473H1.64314V9.85314ZM54.2452 51.7686C53.8457 52.8495 52.8026 53.5758 51.6497 53.5758H48.7957C49.4073 52.8188 49.7747 51.8565 49.7747 50.8097V39.9287C49.7747 39.4751 49.4069 39.1072 48.9532 39.1072C48.4995 39.1072 48.1317 39.4751 48.1317 39.9287V50.8097C48.1317 52.3349 46.8907 53.5758 45.3655 53.5758H4.40912C2.88389 53.5758 1.64303 52.3349 1.64303 50.8097V22.9576H22.2123C22.666 22.9576 23.0338 22.5897 23.0338 22.1361C23.0338 21.6824 22.666 21.3145 22.2123 21.3145H1.64314V19.8905H48.1319V21.3145H26.0352C25.5815 21.3145 25.2137 21.6824 25.2137 22.1361C25.2137 22.5897 25.5815 22.9576 26.0352 22.9576H48.1319V36.0948C48.1319 36.5485 48.4997 36.9163 48.9534 36.9163C49.4071 36.9163 49.7749 36.5485 49.7749 36.0948C49.7749 35.4516 49.7749 21.2695 49.7749 20.6246L54.2861 50.0259C54.2866 50.0301 54.2873 50.0341 54.288 50.0383C54.4616 51.1713 54.2496 51.7569 54.2452 51.7686Z" fill="#505BA8" fill-opacity="0.1"/>
<path d="M18.7235 27.1694H16.0188C15.5651 27.1694 15.1973 27.5373 15.1973 27.9909C15.1973 28.4446 15.5651 28.8125 16.0188 28.8125H18.7235C19.1773 28.8125 19.545 28.4446 19.545 27.9909C19.5451 27.5373 19.1773 27.1694 18.7235 27.1694Z" fill="#444444"/>
<path d="M26.2434 27.1694H23.5383C23.0846 27.1694 22.7168 27.5373 22.7168 27.9909C22.7168 28.4446 23.0846 28.8125 23.5383 28.8125H26.2434C26.6972 28.8125 27.0649 28.4446 27.0649 27.9909C27.065 27.5373 26.6973 27.1694 26.2434 27.1694Z" fill="#444444"/>
<path d="M33.763 27.1694H31.0578C30.6042 27.1694 30.2363 27.5373 30.2363 27.9909C30.2363 28.4446 30.6042 28.8125 31.0578 28.8125H33.763C34.2167 28.8125 34.5845 28.4446 34.5845 27.9909C34.5846 27.5373 34.2167 27.1694 33.763 27.1694Z" fill="#444444"/>
<path d="M41.2815 27.1694H38.5764C38.1227 27.1694 37.7549 27.5373 37.7549 27.9909C37.7549 28.4446 38.1227 28.8125 38.5764 28.8125H41.2815C41.7353 28.8125 42.103 28.4446 42.103 27.9909C42.1031 27.5373 41.7354 27.1694 41.2815 27.1694Z" fill="#444444"/>
<path d="M11.2043 33.7886H8.49925C8.04556 33.7886 7.67773 34.1564 7.67773 34.6101C7.67773 35.0638 8.04556 35.4316 8.49925 35.4316H11.2043C11.6581 35.4316 12.0258 35.0638 12.0258 34.6101C12.0259 34.1563 11.6582 33.7886 11.2043 33.7886Z" fill="#444444"/>
<path d="M18.7235 33.7886H16.0188C15.5651 33.7886 15.1973 34.1564 15.1973 34.6101C15.1973 35.0638 15.5651 35.4316 16.0188 35.4316H18.7235C19.1773 35.4316 19.545 35.0638 19.545 34.6101C19.5451 34.1563 19.1773 33.7886 18.7235 33.7886Z" fill="#444444"/>
<path d="M26.2434 33.7886H23.5383C23.0846 33.7886 22.7168 34.1564 22.7168 34.6101C22.7168 35.0638 23.0846 35.4316 23.5383 35.4316H26.2434C26.6972 35.4316 27.0649 35.0638 27.0649 34.6101C27.065 34.1563 26.6973 33.7886 26.2434 33.7886Z" fill="#444444"/>
<path d="M33.763 33.7886H31.0578C30.6042 33.7886 30.2363 34.1564 30.2363 34.6101C30.2363 35.0638 30.6042 35.4316 31.0578 35.4316H33.763C34.2167 35.4316 34.5845 35.0638 34.5845 34.6101C34.5846 34.1563 34.2167 33.7886 33.763 33.7886Z" fill="#444444"/>
<path d="M41.2815 33.7886H38.5764C38.1227 33.7886 37.7549 34.1564 37.7549 34.6101C37.7549 35.0638 38.1227 35.4316 38.5764 35.4316H41.2815C41.7353 35.4316 42.103 35.0638 42.103 34.6101C42.1031 34.1563 41.7354 33.7886 41.2815 33.7886Z" fill="#444444"/>
<path d="M11.2043 40.4077H8.49925C8.04556 40.4077 7.67773 40.7755 7.67773 41.2292C7.67773 41.6829 8.04556 42.0507 8.49925 42.0507H11.2043C11.6581 42.0507 12.0258 41.6829 12.0258 41.2292C12.0258 40.7755 11.6582 40.4077 11.2043 40.4077Z" fill="#444444"/>
<path d="M18.7235 40.4077H16.0188C15.5651 40.4077 15.1973 40.7755 15.1973 41.2292C15.1973 41.6829 15.5651 42.0507 16.0188 42.0507H18.7235C19.1773 42.0507 19.545 41.6829 19.545 41.2292C19.545 40.7755 19.1773 40.4077 18.7235 40.4077Z" fill="#444444"/>
<path d="M26.2434 40.4077H23.5383C23.0846 40.4077 22.7168 40.7755 22.7168 41.2292C22.7168 41.6829 23.0846 42.0507 23.5383 42.0507H26.2434C26.6972 42.0507 27.0649 41.6829 27.0649 41.2292C27.0649 40.7755 26.6973 40.4077 26.2434 40.4077Z" fill="#444444"/>
<path d="M33.763 40.4077H31.0578C30.6042 40.4077 30.2363 40.7755 30.2363 41.2292C30.2363 41.6829 30.6042 42.0507 31.0578 42.0507H33.763C34.2167 42.0507 34.5845 41.6829 34.5845 41.2292C34.5845 40.7755 34.2167 40.4077 33.763 40.4077Z" fill="#444444"/>
<path d="M41.2815 40.4077H38.5764C38.1227 40.4077 37.7549 40.7755 37.7549 41.2292C37.7549 41.6829 38.1227 42.0507 38.5764 42.0507H41.2815C41.7353 42.0507 42.103 41.6829 42.103 41.2292C42.103 40.7755 41.7354 40.4077 41.2815 40.4077Z" fill="#444444"/>
<path d="M11.2043 47.0269H8.49925C8.04556 47.0269 7.67773 47.3947 7.67773 47.8484C7.67773 48.3021 8.04556 48.6699 8.49925 48.6699H11.2043C11.6581 48.6699 12.0258 48.3021 12.0258 47.8484C12.0259 47.3947 11.6582 47.0269 11.2043 47.0269Z" fill="#444444"/>
<path d="M18.7235 47.0269H16.0188C15.5651 47.0269 15.1973 47.3947 15.1973 47.8484C15.1973 48.3021 15.5651 48.6699 16.0188 48.6699H18.7235C19.1773 48.6699 19.545 48.3021 19.545 47.8484C19.5451 47.3947 19.1773 47.0269 18.7235 47.0269Z" fill="#444444"/>
<path d="M26.2434 47.0269H23.5383C23.0846 47.0269 22.7168 47.3947 22.7168 47.8484C22.7168 48.3021 23.0846 48.6699 23.5383 48.6699H26.2434C26.6972 48.6699 27.0649 48.3021 27.0649 47.8484C27.065 47.3947 26.6973 47.0269 26.2434 47.0269Z" fill="#444444"/>
<path d="M33.763 47.0269H31.0578C30.6042 47.0269 30.2363 47.3947 30.2363 47.8484C30.2363 48.3021 30.6042 48.6699 31.0578 48.6699H33.763C34.2167 48.6699 34.5845 48.3021 34.5845 47.8484C34.5846 47.3947 34.2167 47.0269 33.763 47.0269Z" fill="#444444"/>
</g>
<defs>
<clipPath id="clip0_837_43264">
<rect width="56" height="56" fill="white"/>
</clipPath>
</defs>
</svg>
