<svg width="20" height="24" viewBox="0 0 20 24" fill="none" xmlns="http://www.w3.org/2000/svg">
<path fill-rule="evenodd" clip-rule="evenodd" d="M3.48145 0.332031H12.4223L20 7.22359V20.6277C20 22.3069 18.443 23.6654 16.5252 23.6654H3.48145C1.55696 23.6654 5.49952e-10 22.3069 5.49952e-10 20.6277V3.36967C-3.37884e-05 1.69051 1.55693 0.332031 3.48145 0.332031Z" fill="#068A4F"/>
<path opacity="0.302" fill-rule="evenodd" clip-rule="evenodd" d="M12.416 0.332031V7.17111H20.0004L12.416 0.332031Z" fill="white"/>
<path d="M7.51684 15.1729H6.27063C6.26179 15.0698 6.23822 14.9762 6.19992 14.8923C6.16309 14.8083 6.11154 14.7361 6.04525 14.6757C5.98043 14.6139 5.90162 14.5667 5.80882 14.5343C5.71602 14.5004 5.61069 14.4835 5.49285 14.4835C5.28662 14.4835 5.11206 14.5336 4.96917 14.6338C4.82776 14.7339 4.72023 14.8776 4.64657 15.0646C4.57439 15.2517 4.5383 15.4764 4.5383 15.7386C4.5383 16.0155 4.57513 16.2475 4.64878 16.4346C4.72391 16.6202 4.83218 16.7601 4.97359 16.8544C5.11501 16.9472 5.28515 16.9936 5.48401 16.9936C5.59744 16.9936 5.69908 16.9796 5.78893 16.9516C5.87879 16.9222 5.95686 16.8802 6.02315 16.8257C6.08944 16.7712 6.14321 16.7056 6.18445 16.629C6.22717 16.551 6.2559 16.4633 6.27063 16.3661L7.51684 16.3749C7.50211 16.5664 7.44834 16.7616 7.35554 16.9605C7.26273 17.1579 7.1309 17.3405 6.96002 17.5084C6.79062 17.6749 6.58071 17.8089 6.33029 17.9106C6.07986 18.0122 5.78893 18.0631 5.45749 18.0631C5.04209 18.0631 4.66941 17.9739 4.33944 17.7957C4.01095 17.6175 3.75095 17.3552 3.55945 17.0091C3.36943 16.6629 3.27441 16.2394 3.27441 15.7386C3.27441 15.2348 3.37164 14.8105 3.56608 14.4658C3.76053 14.1197 4.02273 13.8582 4.3527 13.6814C4.68266 13.5032 5.05093 13.4141 5.45749 13.4141C5.74327 13.4141 6.00621 13.4531 6.24632 13.5312C6.48643 13.6092 6.69708 13.7234 6.87827 13.8737C7.05945 14.0224 7.20529 14.2058 7.31577 14.4238C7.42625 14.6419 7.49327 14.8915 7.51684 15.1729Z" fill="white"/>
<path d="M10.5136 14.8901C10.5018 14.7428 10.4466 14.6279 10.3479 14.5454C10.2507 14.4629 10.1026 14.4216 9.90375 14.4216C9.77707 14.4216 9.67322 14.4371 9.5922 14.468C9.51266 14.4975 9.45373 14.538 9.41543 14.5896C9.37713 14.6411 9.35725 14.7 9.35577 14.7663C9.35283 14.8208 9.3624 14.8702 9.3845 14.9144C9.40807 14.9571 9.4449 14.9961 9.49498 15.0315C9.54506 15.0654 9.60914 15.0963 9.68721 15.1243C9.76529 15.1523 9.85809 15.1773 9.96562 15.1994L10.3368 15.279C10.5873 15.332 10.8016 15.402 10.9798 15.4889C11.1581 15.5758 11.3039 15.6782 11.4173 15.796C11.5308 15.9124 11.614 16.0435 11.667 16.1893C11.7215 16.3351 11.7495 16.4942 11.751 16.6666C11.7495 16.9641 11.6751 17.216 11.5278 17.4223C11.3805 17.6285 11.1699 17.7854 10.8959 17.8929C10.6233 18.0004 10.2956 18.0542 9.91259 18.0542C9.51928 18.0542 9.17606 17.996 8.88292 17.8797C8.59125 17.7633 8.3644 17.5843 8.20237 17.3427C8.0418 17.0997 7.96078 16.7889 7.95931 16.4103H9.12598C9.13334 16.5487 9.16796 16.6651 9.22983 16.7594C9.2917 16.8537 9.37861 16.9251 9.49056 16.9737C9.60399 17.0223 9.73877 17.0466 9.89492 17.0466C10.026 17.0466 10.1358 17.0304 10.2241 16.998C10.3125 16.9656 10.3796 16.9207 10.4252 16.8632C10.4709 16.8058 10.4945 16.7402 10.4959 16.6666C10.4945 16.5974 10.4716 16.537 10.4274 16.4854C10.3847 16.4324 10.314 16.3852 10.2153 16.344C10.1166 16.3013 9.9833 16.2615 9.81537 16.2247L9.36461 16.1274C8.96394 16.0405 8.64797 15.8954 8.4167 15.6922C8.1869 15.4874 8.07274 15.2083 8.07421 14.8547C8.07274 14.5675 8.14934 14.3163 8.30401 14.1012C8.46015 13.8847 8.67596 13.716 8.95142 13.5952C9.22835 13.4745 9.5458 13.4141 9.90375 13.4141C10.2691 13.4141 10.585 13.4752 10.8517 13.5975C11.1183 13.7197 11.3238 13.8921 11.4681 14.1145C11.614 14.3355 11.6876 14.594 11.6891 14.8901H10.5136Z" fill="white"/>
<path d="M13.4557 13.4759L14.3837 16.6666H14.4191L15.3471 13.4759H16.7347L15.241 18.0012H13.5617L12.0681 13.4759H13.4557Z" fill="white"/>
</svg>
