<svg width="174" height="105" viewBox="0 0 174 105" fill="none" xmlns="http://www.w3.org/2000/svg">
<g opacity="0.4">
<path d="M48.3033 87.7115C46.3876 87.7115 44.5503 86.9505 43.1957 85.5959C41.8411 84.2412 41.08 82.404 41.08 80.4882C41.08 78.5725 41.8411 76.7352 43.1957 75.3806C44.5503 74.026 46.3876 73.2649 48.3033 73.2649H8.05924C6.1435 73.2649 4.30623 72.5039 2.95159 71.1493C1.59696 69.7946 0.835938 67.9574 0.835938 66.0416C0.835937 64.1259 1.59696 62.2886 2.95159 60.934C4.30623 59.5793 6.1435 58.8183 8.05924 58.8183H49.3352C51.251 58.8183 53.0883 58.0573 54.4429 56.7027C55.7975 55.348 56.5585 53.5108 56.5585 51.595C56.5585 49.6793 55.7975 47.842 54.4429 46.4874C53.0883 45.1327 51.251 44.3717 49.3352 44.3717H23.5377C21.622 44.3717 19.7847 43.6107 18.4301 42.2561C17.0755 40.9014 16.3144 39.0642 16.3144 37.1484C16.3144 35.2327 17.0755 33.3954 18.4301 32.0408C19.7847 30.6861 21.622 29.9251 23.5377 29.9251H64.8137C62.898 29.9251 61.0607 29.1641 59.7061 27.8095C58.3515 26.4548 57.5904 24.6176 57.5904 22.7018C57.5904 20.7861 58.3515 18.9488 59.7061 17.5942C61.0607 16.2395 62.898 15.4785 64.8137 15.4785H165.94C167.856 15.4785 169.693 16.2395 171.048 17.5942C172.402 18.9488 173.163 20.7861 173.163 22.7018C173.163 24.6176 172.402 26.4548 171.048 27.8095C169.693 29.1641 167.856 29.9251 165.94 29.9251H124.664C126.58 29.9251 128.417 30.6861 129.772 32.0408C131.126 33.3954 131.887 35.2327 131.887 37.1484C131.887 39.0642 131.126 40.9014 129.772 42.2561C128.417 43.6107 126.58 44.3717 124.664 44.3717H147.366C149.281 44.3717 151.119 45.1327 152.473 46.4874C153.828 47.842 154.589 49.6793 154.589 51.595C154.589 53.5108 153.828 55.348 152.473 56.7027C151.119 58.0573 149.281 58.8183 147.366 58.8183H136.867C131.837 58.8183 127.76 62.0523 127.76 66.0416C127.76 70.031 133.951 73.2649 133.951 73.2649C135.867 73.2649 137.704 74.026 139.059 75.3806C140.413 76.7352 141.174 78.5725 141.174 80.4882C141.174 82.404 140.413 84.2412 139.059 85.5959C137.704 86.9505 135.867 87.7115 133.951 87.7115H48.3033ZM158.717 51.595C158.717 50.1664 159.14 48.7698 159.934 47.582C160.728 46.3941 161.856 45.4683 163.176 44.9216C164.496 44.3748 165.948 44.2318 167.349 44.5105C168.75 44.7892 170.037 45.4772 171.048 46.4874C172.058 47.4976 172.746 48.7846 173.024 50.1858C173.303 51.587 173.16 53.0394 172.613 54.3593C172.067 55.6791 171.141 56.8073 169.953 57.601C168.765 58.3947 167.369 58.8183 165.94 58.8183C164.024 58.8183 162.187 58.0573 160.832 56.7027C159.478 55.348 158.717 53.5108 158.717 51.595Z" fill="#D0E1FB"/>
<path d="M117.777 96.0773L57.3491 103.497C56.2625 103.63 55.1675 103.327 54.3049 102.653C53.4422 101.979 52.8826 100.99 52.7492 99.9032L43.4458 24.1333C43.3791 23.59 43.531 23.0425 43.868 22.6111C44.205 22.1798 44.6995 21.9 45.2428 21.8333L45.2643 21.8307L50.277 21.2682L54.3307 20.8121L57.2413 20.4869L110.911 14.4471L120.509 84.4545L121.371 91.4775C121.505 92.564 121.201 93.659 120.527 94.5217C119.853 95.3843 118.864 95.9439 117.777 96.0773Z" fill="white" stroke="#C6C7F8" stroke-width="1.99453" stroke-miterlimit="10" stroke-linecap="round"/>
<path d="M108.297 18.8525L116.985 82.297L117.766 88.6625C117.829 89.1468 117.796 89.6389 117.669 90.1104C117.541 90.5819 117.322 91.0237 117.023 91.4104C116.725 91.7971 116.353 92.1211 115.929 92.364C115.506 92.6068 115.038 92.7637 114.554 92.8257L60.4385 99.4702C59.9534 99.5273 59.4618 99.4882 58.9918 99.3551C58.5219 99.222 58.0828 98.9975 57.6996 98.6945C57.3165 98.3914 56.9969 98.0158 56.7592 97.5892C56.5214 97.1625 56.3701 96.6931 56.3139 96.2079L47.9039 27.7139C47.8372 27.1707 47.9891 26.6231 48.3261 26.1918C48.6631 25.7605 49.1576 25.4807 49.7009 25.414L56.3951 24.5921" fill="#DFF2F5"/>
<path d="M127.421 85.3898H66.5389C64.9742 85.3898 63.7012 84.1168 63.7012 82.5521V4.12764C63.7012 2.56292 64.9742 1.28992 66.5389 1.28992H113.549C114.307 1.28992 115.019 1.58487 115.555 2.12045L129.427 15.9839C129.963 16.52 130.259 17.2328 130.259 17.9911V82.5521C130.259 84.1168 128.986 85.3898 127.421 85.3898Z" fill="white"/>
<path d="M66.5387 2.57975C65.6853 2.57975 64.9909 3.27411 64.9909 4.1276V82.552C64.9909 83.4055 65.6853 84.0999 66.5387 84.0999H127.421C128.274 84.0999 128.969 83.4055 128.969 82.552V17.9911C128.969 17.5775 128.808 17.1887 128.515 16.8963L114.643 3.03277C114.351 2.74064 113.962 2.57975 113.549 2.57975H66.5387ZM66.5387 0H113.549C114.643 0 115.693 0.434514 116.467 1.20805L130.339 15.0715C131.113 15.8457 131.548 16.896 131.548 17.9911V82.552C131.548 84.8316 129.7 86.6796 127.421 86.6796H66.5387C64.2591 86.6796 62.4111 84.8316 62.4111 82.552V4.1276C62.4111 1.84799 64.2591 0 66.5387 0Z" fill="#C6C7F8"/>
<g opacity="0.5">
<rect x="72.9199" y="27.3579" width="27.4337" height="2.25796" transform="rotate(1.31758 72.9199 27.3579)" fill="#C6C7F8"/>
<rect x="72.7539" y="34.5814" width="23.2771" height="2.25796" transform="rotate(1.31758 72.7539 34.5814)" fill="#C6C7F8"/>
<rect x="98.9336" y="35.1836" width="23.2771" height="2.25796" transform="rotate(1.31758 98.9336 35.1836)" fill="#C6C7F8"/>
<rect x="72.5879" y="41.8051" width="23.2771" height="2.25796" transform="rotate(1.31758 72.5879 41.8051)" fill="#C6C7F8"/>
<rect x="72.4219" y="49.0286" width="23.2771" height="2.25796" transform="rotate(1.31758 72.4219 49.0286)" fill="#C6C7F8"/>
<rect x="98.6016" y="49.6306" width="23.2771" height="2.25796" transform="rotate(1.31758 98.6016 49.6306)" fill="#C6C7F8"/>
<rect x="98.7676" y="42.4072" width="23.2771" height="2.25796" transform="rotate(1.31758 98.7676 42.4072)" fill="#C6C7F8"/>
</g>
<path d="M114.006 2.47974V14.4498C114.006 15.2708 114.332 16.0582 114.913 16.6388C115.493 17.2193 116.281 17.5455 117.102 17.5455H125.289" stroke="#C6C7F8" stroke-width="1.99453" stroke-miterlimit="10" stroke-linecap="round" stroke-linejoin="round"/>
</g>
</svg>
