<svg width="20" height="24" viewBox="0 0 20 24" fill="none" xmlns="http://www.w3.org/2000/svg">
<path fill-rule="evenodd" clip-rule="evenodd" d="M3.48145 0.333008H12.4223L20 7.22457V20.6287C20 22.3079 18.443 23.6663 16.5252 23.6663H3.48145C1.55696 23.6663 5.49952e-10 22.3079 5.49952e-10 20.6287V3.37065C-3.37884e-05 1.69149 1.55693 0.333008 3.48145 0.333008Z" fill="#F04438"/>
<path opacity="0.302" fill-rule="evenodd" clip-rule="evenodd" d="M12.416 0.333008V7.17209H20.0004L12.416 0.333008Z" fill="white"/>
<path d="M3.86914 17.7425V13.4805H5.94733C6.46187 13.4805 6.8695 13.6029 7.17688 13.8536C7.48426 14.0985 7.63796 14.4308 7.63796 14.8448C7.63796 15.2587 7.48426 15.5911 7.17688 15.836C6.8695 16.0867 6.46187 16.2091 5.94733 16.2091H5.11872V17.7425H3.86914ZM5.11872 15.2821H5.80701C5.9941 15.2821 6.14111 15.2471 6.24136 15.1655C6.34158 15.0897 6.39507 14.9847 6.39507 14.8448C6.39507 14.7049 6.34161 14.5999 6.24136 14.5241C6.14114 14.4425 5.99413 14.4075 5.80701 14.4075H5.11872V15.2821ZM8.15247 17.7425V13.4805H9.88317C10.224 13.4805 10.5447 13.5213 10.8454 13.6087C11.1461 13.6962 11.4201 13.8187 11.6606 13.9877C11.9012 14.151 12.095 14.3725 12.2353 14.6524C12.369 14.9323 12.4425 15.2529 12.4425 15.6144C12.4425 15.9701 12.369 16.2907 12.2353 16.5706C12.095 16.8505 11.9012 17.072 11.6606 17.2352C11.4201 17.4043 11.1461 17.5268 10.8454 17.6142C10.5447 17.7017 10.224 17.7425 9.88317 17.7425H8.15247ZM9.37532 16.8155H9.73616C9.92994 16.8155 10.1104 16.798 10.2774 16.7572C10.4378 16.7164 10.5915 16.6522 10.7385 16.5648C10.8788 16.4773 10.9924 16.3549 11.0726 16.1916C11.1528 16.0284 11.1929 15.836 11.1929 15.6144C11.1929 15.387 11.1528 15.1946 11.0726 15.0314C10.9924 14.8681 10.8788 14.7457 10.7385 14.6582C10.5915 14.5708 10.4378 14.5066 10.2774 14.4658C10.1104 14.425 9.92994 14.4075 9.73616 14.4075H9.37532V16.8155ZM13.0706 17.7425V13.4805H16.5454V14.4075H14.3202V15.0897H16.0977V16.0109H14.3202V17.7425H13.0706Z" fill="white"/>
</svg>
