<svg width="24" height="24" viewBox="0 0 24 24" fill="none" xmlns="http://www.w3.org/2000/svg">
<path d="M4.36372 21.5634V20.3286C4.36372 19.8552 4.07553 19.5466 3.58156 19.5466C3.33462 19.5466 3.06706 19.6289 2.88181 19.8964C2.73781 19.67 2.53203 19.5466 2.22331 19.5466C2.01744 19.5466 1.81175 19.6083 1.64703 19.8347V19.5877H1.21484V21.5634H1.64703V20.4726C1.64703 20.1229 1.83228 19.9581 2.12047 19.9581C2.40847 19.9581 2.55266 20.1434 2.55266 20.4726V21.5634H2.98484V20.4726C2.98484 20.1229 3.19053 19.9581 3.45809 19.9581C3.74628 19.9581 3.89028 20.1434 3.89028 20.4726V21.5634H4.36372ZM10.7641 19.5877H10.0645V18.9909H9.63228V19.5877H9.24125V19.9787H9.63219V20.8843C9.63219 21.3371 9.81744 21.6046 10.3114 21.6046C10.4967 21.6046 10.7023 21.5429 10.8465 21.4606L10.723 21.0901C10.5995 21.1724 10.4555 21.193 10.3526 21.193C10.1468 21.193 10.0645 21.0695 10.0645 20.8637V19.9787H10.7641V19.5877ZM14.4275 19.5465C14.1806 19.5465 14.0159 19.67 13.913 19.8347V19.5877H13.4808V21.5634H13.913V20.4521C13.913 20.1229 14.057 19.9376 14.3246 19.9376C14.4069 19.9376 14.5098 19.9582 14.5921 19.9788L14.7156 19.5672C14.6333 19.5466 14.5098 19.5466 14.4275 19.5466V19.5465ZM8.89137 19.7524C8.6855 19.6083 8.39741 19.5466 8.08869 19.5466C7.59481 19.5466 7.26556 19.7935 7.26556 20.1845C7.26556 20.5139 7.5125 20.699 7.94469 20.7608L8.15047 20.7814C8.37687 20.8225 8.50034 20.8843 8.50034 20.9872C8.50034 21.1312 8.33572 21.2342 8.04753 21.2342C7.75944 21.2342 7.53303 21.1312 7.38894 21.0284L7.18316 21.3576C7.40956 21.5223 7.71828 21.6046 8.02691 21.6046C8.60319 21.6046 8.93253 21.3371 8.93253 20.9666C8.93253 20.6167 8.66497 20.4315 8.25331 20.3698L8.04753 20.3492C7.86228 20.3285 7.71828 20.2875 7.71828 20.164C7.71828 20.0199 7.86228 19.9376 8.08869 19.9376C8.33572 19.9376 8.58266 20.0404 8.70612 20.1022L8.89137 19.7524ZM20.3753 19.5466C20.1282 19.5466 19.9636 19.67 19.8607 19.8347V19.5877H19.4285V21.5634H19.8607V20.4521C19.8607 20.1229 20.0048 19.9376 20.2722 19.9376C20.3547 19.9376 20.4576 19.9582 20.5399 19.9788L20.6634 19.5672C20.5811 19.5466 20.4576 19.5466 20.3753 19.5466ZM14.8597 20.5756C14.8597 21.1724 15.2712 21.6046 15.9093 21.6046C16.1974 21.6046 16.4032 21.5429 16.609 21.3783L16.4032 21.0284C16.2386 21.1519 16.0739 21.2135 15.8887 21.2135C15.5388 21.2135 15.2919 20.9666 15.2919 20.5756C15.2919 20.2052 15.5388 19.9581 15.8887 19.9376C16.0739 19.9376 16.2386 19.9993 16.4032 20.1229L16.609 19.773C16.4032 19.6083 16.1974 19.5466 15.9093 19.5466C15.2712 19.5466 14.8597 19.9788 14.8597 20.5756ZM18.8523 20.5756V19.5877H18.4201V19.8347C18.276 19.6495 18.0702 19.5466 17.8027 19.5466C17.247 19.5466 16.8148 19.9788 16.8148 20.5756C16.8148 21.1724 17.247 21.6046 17.8027 21.6046C18.0908 21.6046 18.2967 21.5017 18.4201 21.3165V21.5634H18.8523V20.5756ZM17.2676 20.5756C17.2676 20.2257 17.494 19.9376 17.8644 19.9376C18.2142 19.9376 18.4613 20.2052 18.4613 20.5756C18.4613 20.9254 18.2142 21.2135 17.8644 21.2135C17.494 21.1929 17.2676 20.9254 17.2676 20.5756ZM12.1019 19.5466C11.5257 19.5466 11.114 19.9581 11.114 20.5756C11.114 21.193 11.5256 21.6046 12.1225 21.6046C12.4106 21.6046 12.6987 21.5223 12.9252 21.3371L12.7193 21.0284C12.5547 21.1519 12.3489 21.2342 12.1431 21.2342C11.8755 21.2342 11.608 21.1107 11.5462 20.7607H13.0075V20.5962C13.0281 19.9581 12.6577 19.5466 12.1019 19.5466ZM12.1019 19.917C12.3694 19.917 12.5547 20.0817 12.5958 20.3904H11.5668C11.608 20.1229 11.7932 19.917 12.1019 19.917ZM22.8243 20.5756V18.8057H22.3921V19.8347C22.248 19.6495 22.0422 19.5466 21.7747 19.5466C21.219 19.5466 20.7868 19.9788 20.7868 20.5756C20.7868 21.1724 21.219 21.6046 21.7747 21.6046C22.0629 21.6046 22.2687 21.5017 22.3921 21.3165V21.5634H22.8243V20.5756ZM21.2397 20.5756C21.2397 20.2257 21.466 19.9376 21.8365 19.9376C22.1863 19.9376 22.4333 20.2052 22.4333 20.5756C22.4333 20.9254 22.1863 21.2135 21.8365 21.2135C21.466 21.1929 21.2397 20.9254 21.2397 20.5756ZM6.79212 20.5756V19.5877H6.35994V19.8347C6.21584 19.6495 6.01006 19.5466 5.7425 19.5466C5.18684 19.5466 4.75466 19.9788 4.75466 20.5756C4.75466 21.1724 5.18684 21.6046 5.7425 21.6046C6.03069 21.6046 6.23647 21.5017 6.35994 21.3165V21.5634H6.79212V20.5756ZM5.18684 20.5756C5.18684 20.2257 5.41325 19.9376 5.78366 19.9376C6.13353 19.9376 6.38056 20.2052 6.38056 20.5756C6.38056 20.9254 6.13353 21.2135 5.78366 21.2135C5.41325 21.1929 5.18684 20.9254 5.18684 20.5756Z" fill="black"/>
<path d="M8.74609 4.58496H15.2289V16.2335H8.74609V4.58496Z" fill="#FF5F00"/>
<path d="M9.15834 10.409C9.15834 8.04225 10.2697 5.943 11.9778 4.58466C10.7225 3.59681 9.13781 3 7.40906 3C3.31341 3 0 6.31341 0 10.409C0 14.5044 3.31341 17.8179 7.40897 17.8179C9.13772 17.8179 10.7224 17.2211 11.9778 16.2332C10.2697 14.8955 9.15834 12.7757 9.15834 10.409Z" fill="#EB001B"/>
<path d="M23.9758 10.409C23.9758 14.5044 20.6624 17.8179 16.5669 17.8179C14.8381 17.8179 13.2535 17.2211 11.998 16.2332C13.7268 14.8749 14.8176 12.7757 14.8176 10.409C14.8176 8.04225 13.7062 5.943 11.998 4.58466C13.2534 3.59681 14.8381 3 16.5669 3C20.6624 3 23.9758 6.33403 23.9758 10.409Z" fill="#F79E1B"/>
</svg>
