<svg width="73" height="72" viewBox="0 0 73 72" fill="none" xmlns="http://www.w3.org/2000/svg">
<g clip-path="url(#clip0_2065_59326)">
<path d="M2.61719 55.2356V68.1405C2.61719 70.2683 4.34778 72.0001 6.47678 72.0001H14.4594V55.2356H2.61719Z" fill="#EFEFEF"/>
<path d="M14.1946 0C12.0668 0 10.3362 1.72902 10.3362 3.85914V68.1406C10.3362 70.2685 8.60555 72.0002 6.47656 72.0002H42.2486V0H14.1946Z" fill="#071A7E"/>
<path d="M48.8323 1.12939C48.081 0.375558 47.0936 0 46.1055 0H14.1914C16.3204 0 18.051 1.72901 18.051 3.85914V37.3001C18.051 38.5098 18.612 39.595 19.4922 40.303C20.1556 40.8373 20.9978 41.1567 21.911 41.1567H49.9651V3.85914C49.9651 2.87039 49.5877 1.88299 48.8323 1.12939Z" fill="white"/>
<path d="M48.7969 1.16468L48.797 1.16479C49.5426 1.90863 49.9151 2.88313 49.9151 3.85914V41.1067H21.911C21.0097 41.1067 20.1784 40.7914 19.5235 40.264L19.5235 40.264C18.6546 39.5652 18.101 38.494 18.101 37.3001V3.85914C18.101 2.00457 16.806 0.450192 15.0728 0.05H46.1055C47.0809 0.05 48.0554 0.4207 48.7969 1.16468Z" stroke="black" stroke-opacity="0.1" stroke-width="0.1"/>
<path d="M45.4926 7.59521H22.4531V8.55548H45.4926V7.59521Z" fill="#C4C4C4"/>
<path d="M45.4926 10.3748H22.4531V11.3343H45.4926V10.3748Z" fill="#C4C4C4"/>
<path d="M45.4926 13.1538H22.4531V14.1152H45.4926V13.1538Z" fill="#C4C4C4"/>
<path d="M45.4926 15.9321H22.4531V16.8935H45.4926V15.9321Z" fill="#C4C4C4"/>
<path d="M45.4926 18.7104H22.4531V19.6714H45.4926V18.7104Z" fill="#C4C4C4"/>
<path d="M45.3371 21.4878H22.4531V22.4474H45.3371V21.4878Z" fill="#C4C4C4"/>
<path d="M45.3371 24.2671H22.4531V25.2267H45.3371V24.2671Z" fill="#C4C4C4"/>
<path d="M45.3371 27.0457H22.4531V28.0059H45.3371V27.0457Z" fill="#C4C4C4"/>
<path d="M45.3371 29.824H22.4531V30.7842H45.3371V29.824Z" fill="#C4C4C4"/>
<path d="M45.3371 32.6023H22.4531V33.5626H45.3371V32.6023Z" fill="#C4C4C4"/>
<path d="M29.6332 15.3459C27.5042 15.3459 25.7737 17.0765 25.7737 19.2055V37.3002C25.7737 39.428 24.0494 41.1568 21.9141 41.1568H36.5421V15.3459H29.6332Z" fill="#051C92"/>
<path d="M49.4485 31.3799L28.5117 46.5035V72.0001H70.3841V46.5035L49.4485 31.3799Z" fill="#E58A7B"/>
<path d="M64.2696 16.478C63.5183 15.7248 62.5309 15.3481 61.5433 15.3481H29.6328C31.7641 15.3481 33.4924 17.0754 33.4924 19.2077V71.049H65.4031V19.2059C65.4031 18.2197 65.0239 17.2316 64.2696 16.478Z" fill="#FAFAFA"/>
<path d="M64.2342 16.5133L64.2343 16.5134C64.9789 17.2573 65.3531 18.2325 65.3531 19.2059V70.999H33.5424V19.2077C33.5424 17.3514 32.2493 15.7981 30.5153 15.3981H61.5433C62.5182 15.3981 63.4927 15.77 64.2342 16.5133Z" stroke="black" stroke-opacity="0.1" stroke-width="0.1"/>
<path d="M60.9709 27.7866H56.7773V28.748H60.9709V27.7866Z" fill="#C4C4C4"/>
<path d="M60.9709 30.5649H56.7773V31.5252H60.9709V30.5649Z" fill="#C4C4C4"/>
<path d="M60.9709 33.3433H56.7773V34.3028H60.9709V33.3433Z" fill="#C4C4C4"/>
<path d="M60.9709 36.1218H56.7773V37.0798H60.9709V36.1218Z" fill="#C4C4C4"/>
<path d="M60.9709 38.9001H56.7773V39.8593H60.9709V38.9001Z" fill="#C4C4C4"/>
<path d="M60.9709 41.6785H56.7773V42.6365H60.9709V41.6785Z" fill="#C4C4C4"/>
<path d="M60.9676 44.4568H37.9297V45.4164H60.9676V44.4568Z" fill="#C4C4C4"/>
<path d="M60.9676 47.2351H37.9297V48.1947H60.9676V47.2351Z" fill="#C4C4C4"/>
<path d="M60.9676 50.0134H37.9297V50.973H60.9676V50.0134Z" fill="#C4C4C4"/>
<path d="M60.9676 52.7859H37.9297V53.7455H60.9676V52.7859Z" fill="#C4C4C4"/>
<path d="M60.9676 55.5703H37.9297V56.5294H60.9676V55.5703Z" fill="#C4C4C4"/>
<path d="M60.9676 58.3486H37.9297V59.3078H60.9676V58.3486Z" fill="#C4C4C4"/>
<path d="M60.9676 61.127H37.9297V62.085H60.9676V61.127Z" fill="#C4C4C4"/>
<path d="M60.9676 63.8994H37.9297V64.859H60.9676V63.8994Z" fill="#C4C4C4"/>
<path d="M41.1196 39.6294H37.9297V42.1543H41.1196V39.6294Z" fill="#71CFF4"/>
<path d="M45.649 33.4243H42.4609V42.1587H45.649V33.4243Z" fill="#71CFF4"/>
<path d="M50.1826 35.5894H46.9961V42.1538H50.1826V35.5894Z" fill="#71CFF4"/>
<path d="M54.7154 28.2671H51.5273V42.1589H54.7154V28.2671Z" fill="#FA7564"/>
<path d="M60.9676 22.7102H37.9297V25.4879H60.9676V22.7102Z" fill="#71CFF4"/>
<path d="M70.3848 46.5034V72L49.4492 59.2566L70.3848 46.5034Z" fill="#CF6F64"/>
<path d="M49.4485 59.2566L28.5117 72V46.5034L49.4485 59.2566Z" fill="#CF6F64"/>
<path d="M70.3841 72H28.5117L49.4485 59.2566L70.3841 72Z" fill="#E58A7B"/>
</g>
<defs>
<clipPath id="clip0_2065_59326">
<rect width="72" height="72" fill="white" transform="translate(0.5)"/>
</clipPath>
</defs>
</svg>
