<svg width="69" height="74" viewBox="0 0 69 74" fill="none" xmlns="http://www.w3.org/2000/svg">
<path d="M24.5544 69.2409V67.8907C24.5544 67.2885 24.0618 66.7959 23.4596 66.7959H11.417C10.8149 66.7959 10.3223 67.2885 10.3223 67.8907V71.9049C10.3223 72.507 10.8149 72.9996 11.417 72.9996H19.4272C20.303 72.9996 21.1423 72.653 21.7627 72.0326L24.5544 69.2409Z" fill="#92D6E9"/>
<path opacity="0.3" d="M23.4596 66.7959H11.417C10.8149 66.7959 10.3223 67.2885 10.3223 67.8907V71.6129H22.1824L24.5544 69.2409V67.8907C24.5544 67.2885 24.0618 66.7959 23.4596 66.7959Z" fill="#0A1E2B" stroke="#0A1E2B" stroke-width="1.09478" stroke-miterlimit="10" stroke-linecap="round" stroke-linejoin="round"/>
<path d="M39.334 69.2409V67.8907C39.334 67.2885 39.8266 66.7959 40.4288 66.7959H52.4713C53.0735 66.7959 53.5661 67.2885 53.5661 67.8907V71.9049C53.5661 72.507 53.0735 72.9996 52.4713 72.9996H44.4612C43.5854 72.9996 42.746 72.653 42.1257 72.0326L39.334 69.2409Z" fill="#92D6E9"/>
<path opacity="0.3" d="M52.4713 66.7959H40.4288C39.8266 66.7959 39.334 67.2885 39.334 67.8907V69.2409L41.706 71.6129H53.5661V67.8907C53.5661 67.2885 53.0735 66.7959 52.4713 66.7959Z" fill="#0A1E2B" stroke="#0A1E2B" stroke-width="1.09478" stroke-miterlimit="10" stroke-linecap="round" stroke-linejoin="round"/>
<path d="M24.5544 69.2409V67.8907C24.5544 67.2885 24.0618 66.7959 23.4596 66.7959H11.417C10.8149 66.7959 10.3223 67.2885 10.3223 67.8907V71.9049C10.3223 72.507 10.8149 72.9996 11.417 72.9996H19.4272C20.303 72.9996 21.1423 72.653 21.7627 72.0326L24.5544 69.2409Z" stroke="#212552" stroke-width="1.09478" stroke-miterlimit="10" stroke-linecap="round" stroke-linejoin="round"/>
<path d="M39.334 69.2409V67.8907C39.334 67.2885 39.8266 66.7959 40.4288 66.7959H52.4713C53.0735 66.7959 53.5661 67.2885 53.5661 67.8907V71.9049C53.5661 72.507 53.0735 72.9996 52.4713 72.9996H44.4612C43.5854 72.9996 42.746 72.653 42.1257 72.0326L39.334 69.2409Z" stroke="#212552" stroke-width="1.09478" stroke-miterlimit="10" stroke-linecap="round" stroke-linejoin="round"/>
<path d="M55.6648 69.2592H8.22431C4.19187 69.2592 0.925781 65.9931 0.925781 61.9607V14.5202C0.925781 10.4878 4.19187 7.22168 8.22431 7.22168H55.6648C59.6972 7.22168 62.9633 10.4878 62.9633 14.5202V61.9607C62.9633 65.9931 59.6972 69.2592 55.6648 69.2592Z" fill="#CBEDF9"/>
<path d="M55.6648 7.22168H8.22431C4.19187 7.22168 0.925781 10.4878 0.925781 14.5202V18.7169C0.925781 14.6844 4.19187 11.4183 8.22431 11.4183H55.6648C59.6972 11.4183 62.9633 14.6844 62.9633 18.7169V14.5202C62.9633 10.4878 59.6972 7.22168 55.6648 7.22168Z" fill="#E8F9FF"/>
<path d="M55.6648 65.0632H8.22431C4.19187 65.0632 0.925781 61.7971 0.925781 57.7646V61.9613C0.925781 65.9937 4.19187 69.2598 8.22431 69.2598H55.6648C59.6972 69.2598 62.9633 65.9937 62.9633 61.9613V57.7646C62.9633 61.7971 59.6972 65.0632 55.6648 65.0632Z" fill="#92D6E9"/>
<path opacity="0.23" d="M7.98633 61.7965L14.628 69.2593H27.0355L35.0456 69.2045L33.4582 57.3262L7.98633 61.7965Z" fill="#0A1E2B" stroke="#0A1E2B" stroke-width="1.09478" stroke-miterlimit="10" stroke-linecap="round" stroke-linejoin="round"/>
<path d="M10.4136 62.6912C8.80788 62.6912 7.49414 61.3774 7.49414 59.7718V16.7104C7.49414 15.1048 8.80788 13.791 10.4136 13.791H53.4749C55.0806 13.791 56.3943 15.1048 56.3943 16.7104V59.7718C56.3943 61.3774 55.0806 62.6912 53.4749 62.6912H10.4136Z" fill="#92D6E9"/>
<path d="M56.3943 16.7104V59.7718C56.3943 61.3774 55.0806 62.6912 53.4749 62.6912H10.4136C8.80788 62.6912 7.49414 61.3774 7.49414 59.7718V16.7104C7.49414 15.1048 8.80788 13.791 10.4136 13.791H33.6594C34.4805 14.1742 35.0461 15.0318 35.0461 15.9623V17.8417H50.1176C50.592 17.8417 51.0299 18.0424 51.3401 18.3526L55.1171 14.3019C55.8834 14.8128 56.3943 15.7069 56.3943 16.7104Z" stroke="#212552" stroke-width="1.09478" stroke-miterlimit="10" stroke-linecap="round" stroke-linejoin="round"/>
<path opacity="0.23" d="M48.5312 55.1004L58.4937 60.6838L60.5008 54.4436L55.1182 50.7578L48.5312 55.1004Z" fill="#0A1E2B" stroke="#0A1E2B" stroke-width="1.09478" stroke-miterlimit="10" stroke-linecap="round" stroke-linejoin="round"/>
<path d="M55.1178 14.3019L51.3408 18.3526C51.0307 18.0424 50.5927 17.8417 50.1183 17.8417H35.0469V15.9623C35.0469 15.0318 34.463 14.1742 33.6602 13.791H53.4757C54.0778 13.791 54.6617 13.9735 55.1178 14.3019Z" fill="#53ADBC"/>
<path d="M55.1178 14.3019L51.3408 18.3526C51.0307 18.0424 50.5927 17.8417 50.1183 17.8417H35.0469V15.9623C35.0469 15.0318 34.463 14.1742 33.6602 13.791H53.4757C54.0778 13.791 54.6617 13.9735 55.1178 14.3019Z" stroke="#212552" stroke-width="1.09478" stroke-miterlimit="10" stroke-linecap="round" stroke-linejoin="round"/>
<path d="M51.3408 18.334C51.651 18.6442 51.8517 19.0821 51.8517 19.5565V55.8484C51.8517 56.9067 50.9942 57.7461 49.9541 57.7461H35.0469" stroke="#212552" stroke-width="1.09478" stroke-miterlimit="10" stroke-linecap="round" stroke-linejoin="round"/>
<path d="M61.5038 49.7727L58.2012 41.2151C58.0188 40.7225 57.4531 40.4853 56.9605 40.6677L48.8774 43.8061L40.7942 46.9262C40.3016 47.1087 40.0644 47.6743 40.2469 48.167L43.5494 56.7245C43.7319 57.2172 44.2975 57.4544 44.7902 57.2719L52.8733 54.1518L60.9564 51.0317C61.4491 50.8127 61.7045 50.2653 61.5038 49.7727Z" fill="#5F9E71" stroke="#212552" stroke-width="1.09478" stroke-miterlimit="10" stroke-linecap="round" stroke-linejoin="round"/>
<path d="M61.5038 49.7727L58.2012 41.2151C58.0188 40.7225 57.4531 40.4853 56.9605 40.6677L48.8774 43.8061L40.7942 46.9262C40.3016 47.1087 40.0644 47.6743 40.2469 48.167L43.5494 56.7245C43.7319 57.2172 44.2975 57.4544 44.7902 57.2719L52.8733 54.1518L60.9564 51.0317C61.4491 50.8127 61.7045 50.2653 61.5038 49.7727Z" stroke="#212552" stroke-width="1.09478" stroke-miterlimit="10" stroke-linecap="round" stroke-linejoin="round"/>
<path d="M59.1857 49.3528L58.3281 47.145C57.8172 47.3457 57.2516 47.0903 57.0509 46.5794C56.8502 46.0685 57.1056 45.5029 57.6165 45.3022L56.7589 43.0943C56.6495 42.8389 56.3575 42.6929 56.1021 42.8024L49.6429 45.3022L49.4969 45.3569L43.0377 47.8566C42.7822 47.9661 42.6363 48.2581 42.7458 48.5135L43.6033 50.7213C44.1142 50.5206 44.6799 50.776 44.8806 51.2869C45.0813 51.7978 44.8258 52.3635 44.3149 52.5642L45.1725 54.772C45.282 55.0274 45.5739 55.1734 45.8294 55.0639L52.2886 52.5642L52.4346 52.5094L58.8938 50.0097C59.1492 49.9185 59.2769 49.6265 59.1857 49.3528Z" fill="#90C49E"/>
<path d="M51.7367 51.2315C52.9304 50.77 53.5063 49.3826 53.0231 48.1325C52.5398 46.8824 51.1802 46.2431 49.9866 46.7047C48.7929 47.1662 48.217 48.5536 48.7004 49.8037C49.1837 51.0537 50.5431 51.6931 51.7367 51.2315Z" fill="white"/>
<path opacity="0.23" d="M46.8887 50.7577L53.3661 42.0724L53.1107 33.5879L46.8887 50.7577Z" fill="#0A1E2B" stroke="#0A1E2B" stroke-width="1.09478" stroke-miterlimit="10" stroke-linecap="round" stroke-linejoin="round"/>
<path d="M42.8562 51.4697H39.9551L41.0863 55.5569L41.6155 56.9254L42.8562 51.4697Z" fill="#A78B75"/>
<path d="M39.0421 57.7647H32.9661C31.8348 57.7647 31.1415 56.8341 31.4152 55.7759L32.3092 52.1996C32.4552 51.5792 33.2033 51.123 33.9696 51.123H38.0751C38.8414 51.123 39.5713 51.5792 39.7355 52.1996L40.6295 55.7759C40.8667 56.8159 40.1734 57.7647 39.0421 57.7647Z" fill="#FFE07D"/>
<path d="M40.612 55.7759L39.7179 52.1996C39.572 51.5792 38.8239 51.123 38.0575 51.123H33.9521C33.1858 51.123 32.4559 51.5792 32.2917 52.1996L32.2734 52.2908C32.4377 52.2543 32.6019 52.2361 32.7661 52.2361H36.8715C37.6379 52.2361 38.3677 52.6922 38.5319 53.3126L39.426 56.8889C39.499 57.1808 39.499 57.4728 39.426 57.7282C40.3201 57.5458 40.831 56.7064 40.612 55.7759Z" fill="#FFE8A6"/>
<path d="M39.0421 57.7647H32.9661C31.8348 57.7647 31.1415 56.8341 31.4152 55.7759L32.3092 52.1996C32.4552 51.5792 33.2033 51.123 33.9696 51.123H38.0751C38.8414 51.123 39.5713 51.5792 39.7355 52.1996L40.6295 55.7759C40.8667 56.8159 40.1734 57.7647 39.0421 57.7647Z" stroke="#212552" stroke-width="1.09478" stroke-miterlimit="10" stroke-linecap="round" stroke-linejoin="round"/>
<path d="M34.3898 51.1231H28.3138C27.1825 51.1231 26.4891 50.1925 26.7628 49.1343L27.6569 45.558C27.8029 44.9376 28.551 44.4814 29.3173 44.4814H33.4045C34.1708 44.4814 34.9007 44.9376 35.0649 45.558L35.959 49.1343C36.2144 50.1743 35.5211 51.1231 34.3898 51.1231Z" fill="#FFE07D"/>
<path d="M34.3898 51.1231H28.3138C27.1825 51.1231 26.4891 50.1925 26.7628 49.1343L27.6569 45.558C27.8029 44.9376 28.551 44.4814 29.3173 44.4814H33.4045C34.1708 44.4814 34.9007 44.9376 35.0649 45.558L35.959 49.1343C36.2144 50.1743 35.5211 51.1231 34.3898 51.1231Z" stroke="#212552" stroke-width="1.09478" stroke-miterlimit="10" stroke-linecap="round" stroke-linejoin="round"/>
<path d="M52.5446 33.0223L43.9506 29.8109C43.4579 29.6285 42.9105 29.8839 42.7281 30.3766L39.6992 38.4962L36.6703 46.6158C36.4878 47.1085 36.7433 47.6558 37.2359 47.8383L45.83 51.0497C46.3226 51.2321 46.87 50.9767 47.0525 50.484L50.0814 42.3644L53.1102 34.2448C53.2927 33.7521 53.0373 33.2047 52.5446 33.0223Z" fill="#5F9E71" stroke="#212552" stroke-width="1.09478" stroke-miterlimit="10" stroke-linecap="round" stroke-linejoin="round"/>
<path d="M50.6838 34.4821L48.476 33.661C48.2935 34.1719 47.7096 34.4274 47.1987 34.2449C46.6878 34.0624 46.4324 33.4786 46.6148 32.9677L44.407 32.1466C44.1333 32.0553 43.8414 32.1831 43.7502 32.4385L41.3234 38.9342L41.2687 39.0802L38.8419 45.5759C38.7507 45.8496 38.8784 46.1415 39.1338 46.2327L41.3416 47.0538C41.5241 46.5429 42.108 46.2875 42.6189 46.4699C43.1298 46.6524 43.3852 47.2363 43.2028 47.7472L45.4106 48.5683C45.6843 48.6595 45.9762 48.5318 46.0674 48.2763L48.4942 41.7806L48.5489 41.6347L50.9757 35.139C51.0852 34.8835 50.9575 34.5916 50.6838 34.4821Z" fill="#90C49E"/>
<path d="M47.1451 41.2693C47.5925 40.0701 46.9375 38.7182 45.6818 38.2495C44.4261 37.7807 43.0454 38.3728 42.5978 39.572C42.1502 40.7709 42.8054 42.123 44.0611 42.5916C45.3167 43.0603 46.6976 42.4682 47.1451 41.2693Z" fill="white"/>
<path d="M52.5446 33.0223L43.9506 29.8109C43.4579 29.6285 42.9105 29.8839 42.7281 30.3766L39.6992 38.4962L36.6703 46.6158C36.4878 47.1085 36.7433 47.6558 37.2359 47.8383L45.83 51.0497C46.3226 51.2321 46.87 50.9767 47.0525 50.484L50.0814 42.3644L53.1102 34.2448C53.2927 33.7521 53.0373 33.2047 52.5446 33.0223Z" stroke="#212552" stroke-width="1.09478" stroke-miterlimit="10" stroke-linecap="round" stroke-linejoin="round"/>
<path d="M38.8412 45.0099L35.2832 44.8457L36.3232 48.4585L37.6005 50.4656L38.8412 45.0099Z" fill="#A78B75"/>
<path d="M44.3331 51.1231H38.2571C37.1258 51.1231 36.4325 50.1925 36.7062 49.1343L37.6002 45.558C37.7462 44.9376 38.4943 44.4814 39.2607 44.4814H43.3661C44.1324 44.4814 44.8623 44.9376 45.0265 45.558L45.9206 49.1343C46.1578 50.1743 45.4644 51.1231 44.3331 51.1231Z" fill="#FFE07D"/>
<path d="M45.8842 49.1343L44.9901 45.558C44.8441 44.9376 44.096 44.4814 43.3297 44.4814H39.2425C38.4762 44.4814 37.7463 44.9376 37.5821 45.558L37.5273 45.7769C37.7463 45.7039 37.9653 45.6492 38.2025 45.6492H42.3079C43.0742 45.6492 43.8041 46.1054 43.9683 46.7257L44.8624 50.302C44.9171 50.5575 44.9354 50.7947 44.8989 51.0319C45.6835 50.7764 46.1031 49.9918 45.8842 49.1343Z" fill="#FFE8A6"/>
<path d="M44.3331 51.1231H38.2571C37.1258 51.1231 36.4325 50.1925 36.7062 49.1343L37.6002 45.558C37.7462 44.9376 38.4943 44.4814 39.2607 44.4814H43.3661C44.1324 44.4814 44.8623 44.9376 45.0265 45.558L45.9206 49.1343C46.1578 50.1743 45.4644 51.1231 44.3331 51.1231Z" stroke="#212552" stroke-width="1.09478" stroke-miterlimit="10" stroke-linecap="round" stroke-linejoin="round"/>
<path d="M39.6437 44.4805H33.5677C32.4364 44.4805 31.743 43.55 32.0167 42.4917L32.9108 38.9154C33.0568 38.295 33.8049 37.8389 34.5712 37.8389H38.6766C39.443 37.8389 40.1728 38.295 40.337 38.9154L41.2311 42.4917C41.4501 43.5317 40.775 44.4805 39.6437 44.4805Z" fill="#FFE07D"/>
<path d="M41.1953 42.4917L40.3013 38.9154C40.1553 38.295 39.4072 37.8389 38.6408 37.8389H34.5354C33.7691 37.8389 33.0392 38.295 32.875 38.9154V38.9519C33.0575 38.8972 33.2582 38.8607 33.4589 38.8607H37.5643C38.3306 38.8607 39.0605 39.3168 39.2247 39.9372L40.1188 43.5135C40.1918 43.8237 40.1918 44.1339 40.1005 44.4075C40.9581 44.1886 41.4143 43.3858 41.1953 42.4917Z" fill="#FFE8A6"/>
<path d="M39.6437 44.4805H33.5677C32.4364 44.4805 31.743 43.55 32.0167 42.4917L32.9108 38.9154C33.0568 38.295 33.8049 37.8389 34.5712 37.8389H38.6766C39.443 37.8389 40.1728 38.295 40.337 38.9154L41.2311 42.4917C41.4501 43.5317 40.775 44.4805 39.6437 44.4805Z" stroke="#212552" stroke-width="1.09478" stroke-miterlimit="10" stroke-linecap="round" stroke-linejoin="round"/>
<path opacity="0.23" d="M53.4745 13.791H23.8789L24.7365 40.3577H40.775L53.1095 33.5883L56.3939 21.3997V16.7104C56.3939 15.0865 55.0801 13.791 53.4745 13.791Z" fill="#0A1E2B" stroke="#0A1E2B" stroke-width="1.09478" stroke-miterlimit="10" stroke-linecap="round" stroke-linejoin="round"/>
<path d="M49.2609 57.7647H43.1848C42.0536 57.7647 41.3602 56.8341 41.6339 55.7759L42.528 52.1996C42.674 51.5792 43.422 51.123 44.1884 51.123H48.2938C49.0602 51.123 49.79 51.5792 49.9542 52.1996L50.8483 55.7759C51.0855 56.8159 50.3922 57.7647 49.2609 57.7647Z" fill="#FFE07D"/>
<path d="M50.8106 55.7759L49.9165 52.1996C49.7706 51.5792 49.0225 51.123 48.2561 51.123H44.1689C43.4026 51.123 42.6728 51.5792 42.5085 52.1996L42.4355 52.5098C42.6363 52.4368 42.8552 52.4003 43.0742 52.4003H47.1796C47.9459 52.4003 48.6758 52.8565 48.84 53.4768L49.7341 57.0531C49.7888 57.2721 49.8071 57.491 49.7706 57.6917C50.5917 57.4545 51.0296 56.6517 50.8106 55.7759Z" fill="#FFE8A6"/>
<path d="M49.2609 57.7647H43.1848C42.0536 57.7647 41.3602 56.8341 41.6339 55.7759L42.528 52.1996C42.674 51.5792 43.422 51.123 44.1884 51.123H48.2938C49.0602 51.123 49.79 51.5792 49.9542 52.1996L50.8483 55.7759C51.0855 56.8159 50.3922 57.7647 49.2609 57.7647Z" stroke="#212552" stroke-width="1.09478" stroke-miterlimit="10" stroke-linecap="round" stroke-linejoin="round"/>
<path d="M9.84766 60.319V16.1264C9.84766 14.4659 10.7782 12.9515 11.9277 12.7143L26.689 9.75839C28.167 9.46645 29.3712 10.7802 29.3712 12.6778V63.7675C29.3712 65.6834 28.1487 66.9789 26.689 66.6869L11.9277 63.731C10.7782 63.5121 9.84766 61.9794 9.84766 60.319Z" fill="#92D6E9"/>
<path d="M9.84766 60.319V16.1264C9.84766 14.4659 10.7782 12.9515 11.9277 12.7143L26.689 9.75839C28.167 9.46645 29.3712 10.7802 29.3712 12.6778V63.7675C29.3712 65.6834 28.1487 66.9789 26.689 66.6869L11.9277 63.731C10.7782 63.5121 9.84766 61.9794 9.84766 60.319Z" stroke="#212552" stroke-width="1.09478" stroke-miterlimit="10" stroke-linecap="round" stroke-linejoin="round"/>
<path d="M7.49414 59.7716V16.7103C7.49414 15.1046 8.38821 13.5719 9.51948 13.3165L24.2808 9.86794C25.777 9.52126 27.036 10.7803 27.036 12.6961V63.7858C27.036 65.7017 25.7952 66.9607 24.2808 66.614L9.53773 63.1655C8.38821 62.8918 7.49414 61.3773 7.49414 59.7716Z" fill="#CBEDF9"/>
<path d="M24.2801 63.6764L9.53706 60.2278C8.40579 59.9541 7.51172 58.4397 7.51172 56.834V59.7534C7.51172 61.3591 8.40579 62.8918 9.53706 63.1472L24.2801 66.5958C25.7763 66.9424 27.0353 65.6835 27.0353 63.7676V60.8482C27.0353 62.7823 25.7763 64.0413 24.2801 63.6764Z" fill="#92D6E9"/>
<path d="M24.2801 9.86794L9.53706 13.3165C8.40579 13.5902 7.51172 15.1046 7.51172 16.7103V18.8999C7.51172 17.2942 8.40579 15.7615 9.53706 15.5061L24.2801 12.0575C25.7763 11.7108 27.0353 12.9698 27.0353 14.8857V12.6961C27.0353 10.7803 25.7763 9.52126 24.2801 9.86794Z" fill="#E8F9FF"/>
<path d="M24.7365 25.2676C25.2102 25.2676 25.5941 24.4017 25.5941 23.3335C25.5941 22.2654 25.2102 21.3994 24.7365 21.3994C24.2628 21.3994 23.8789 22.2654 23.8789 23.3335C23.8789 24.4017 24.2628 25.2676 24.7365 25.2676Z" fill="#212552"/>
<path d="M7.49414 59.7716V16.7103C7.49414 15.1046 8.38821 13.5719 9.51948 13.3165L24.2808 9.86794C25.777 9.52126 27.036 10.7803 27.036 12.6961V63.7858C27.036 65.7017 25.7952 66.9607 24.2808 66.614L9.53773 63.1655C8.38821 62.8918 7.49414 61.3773 7.49414 59.7716Z" stroke="#212552" stroke-width="1.09478" stroke-miterlimit="10" stroke-linecap="round" stroke-linejoin="round"/>
<path d="M16.5438 49.4992C19.3554 49.4992 21.6346 45.0389 21.6346 39.5367C21.6346 34.0345 19.3554 29.5742 16.5438 29.5742C13.7323 29.5742 11.4531 34.0345 11.4531 39.5367C11.4531 45.0389 13.7323 49.4992 16.5438 49.4992Z" fill="#9FBDCA" stroke="#9FBDCA" stroke-width="1.09478" stroke-miterlimit="10" stroke-linecap="round" stroke-linejoin="round"/>
<path d="M16.3622 50.3923C17.2289 50.3923 17.9313 49.7552 17.9313 48.9691C17.9313 48.1831 17.2289 47.5459 16.3622 47.5459C15.4955 47.5459 14.793 48.1831 14.793 48.9691C14.793 49.7552 15.4955 50.3923 16.3622 50.3923Z" fill="#9FBDCA" stroke="#9FBDCA" stroke-width="1.09478" stroke-miterlimit="10" stroke-linecap="round" stroke-linejoin="round"/>
<path d="M16.7636 48.4585C19.7666 48.4585 22.201 43.9247 22.201 38.3318C22.201 32.7389 19.7666 28.2051 16.7636 28.2051C13.7606 28.2051 11.3262 32.7389 11.3262 38.3318C11.3262 43.9247 13.7606 48.4585 16.7636 48.4585Z" fill="#CBEDF9"/>
<path d="M16.3614 46.7251C18.7196 46.7251 20.6311 42.9673 20.6311 38.3318C20.6311 33.6963 18.7196 29.9385 16.3614 29.9385C14.0035 29.9385 12.0918 33.6963 12.0918 38.3318C12.0918 42.9673 14.0035 46.7251 16.3614 46.7251Z" fill="#92D6E9"/>
<g opacity="0.23">
<path d="M11.6364 38.332L19.6283 38.6422L17.2562 48.4222L14.6288 47.6559L11.3262 38.332" fill="#0A1E2B"/>
<path d="M11.6364 38.332L19.6283 38.6422L17.2562 48.4222L14.6288 47.6559L11.3262 38.332" stroke="#0A1E2B" stroke-width="1.09478" stroke-miterlimit="10" stroke-linecap="round" stroke-linejoin="round"/>
</g>
<path d="M16.7636 48.4585C19.7666 48.4585 22.201 43.9247 22.201 38.3318C22.201 32.7389 19.7666 28.2051 16.7636 28.2051C13.7606 28.2051 11.3262 32.7389 11.3262 38.3318C11.3262 43.9247 13.7606 48.4585 16.7636 48.4585Z" stroke="#212552" stroke-width="1.09478" stroke-miterlimit="10" stroke-linecap="round" stroke-linejoin="round"/>
<path opacity="0.23" d="M7.49486 31.3981C6.69202 31.3981 6.03516 30.7413 6.03516 29.9384V25.5593C6.03516 24.7565 6.69202 24.0996 7.49486 24.0996C8.2977 24.0996 8.95457 24.7565 8.95457 25.5593V29.9384C8.95457 30.7413 8.2977 31.3981 7.49486 31.3981Z" fill="#0A1E2B" stroke="#0A1E2B" stroke-width="1.09478" stroke-miterlimit="10" stroke-linecap="round" stroke-linejoin="round"/>
<path opacity="0.23" d="M7.49486 55.2097C6.69202 55.2097 6.03516 54.5528 6.03516 53.75V49.3708C6.03516 48.568 6.69202 47.9111 7.49486 47.9111C8.2977 47.9111 8.95457 48.568 8.95457 49.3708V53.75C8.95457 54.5528 8.2977 55.2097 7.49486 55.2097Z" fill="#0A1E2B" stroke="#0A1E2B" stroke-width="1.09478" stroke-miterlimit="10" stroke-linecap="round" stroke-linejoin="round"/>
<path d="M7.49486 29.9382C6.69202 29.9382 6.03516 29.2813 6.03516 28.4785V24.0994C6.03516 23.2965 6.69202 22.6396 7.49486 22.6396C8.2977 22.6396 8.95457 23.2965 8.95457 24.0994V28.4785C8.95457 29.2813 8.2977 29.9382 7.49486 29.9382Z" fill="#92D6E9"/>
<path d="M7.49486 53.8415C6.69202 53.8415 6.03516 53.1846 6.03516 52.3818V48.0027C6.03516 47.1998 6.69202 46.543 7.49486 46.543C8.2977 46.543 8.95457 47.1998 8.95457 48.0027V52.3818C8.95457 53.1846 8.2977 53.8415 7.49486 53.8415Z" fill="#92D6E9"/>
<path d="M7.49486 29.9382C6.69202 29.9382 6.03516 29.2813 6.03516 28.4785V24.0994C6.03516 23.2965 6.69202 22.6396 7.49486 22.6396C8.2977 22.6396 8.95457 23.2965 8.95457 24.0994V28.4785C8.95457 29.2813 8.2977 29.9382 7.49486 29.9382Z" stroke="#212552" stroke-width="1.09478" stroke-miterlimit="10" stroke-linecap="round" stroke-linejoin="round"/>
<path d="M7.49486 53.8415C6.69202 53.8415 6.03516 53.1846 6.03516 52.3818V48.0027C6.03516 47.1998 6.69202 46.543 7.49486 46.543C8.2977 46.543 8.95457 47.1998 8.95457 48.0027V52.3818C8.95457 53.1846 8.2977 53.8415 7.49486 53.8415Z" stroke="#212552" stroke-width="1.09478" stroke-miterlimit="10" stroke-linecap="round" stroke-linejoin="round"/>
<path d="M68.0744 10.4699L64.3887 9.95898" stroke="#212552" stroke-width="1.09478" stroke-miterlimit="10" stroke-linecap="round" stroke-linejoin="round"/>
<path d="M59.2974 4.68576L58.75 1" stroke="#212552" stroke-width="1.09478" stroke-miterlimit="10" stroke-linecap="round" stroke-linejoin="round"/>
<path d="M62.9473 6.01779L65.593 3.37207" stroke="#212552" stroke-width="1.09478" stroke-miterlimit="10" stroke-linecap="round" stroke-linejoin="round"/>
<path d="M15.7787 34.5918H12.9141V42.091H15.7787C17.0377 42.091 18.0413 40.4124 18.0413 38.3505C18.0413 36.2887 17.0195 34.5918 15.7787 34.5918Z" fill="#3CA4B5"/>
<path d="M15.7787 34.5918H12.9141V42.091H15.7787C17.0377 42.091 18.0413 40.4124 18.0413 38.3505C18.0413 36.2887 17.0195 34.5918 15.7787 34.5918Z" stroke="#212552" stroke-width="1.09478" stroke-miterlimit="10" stroke-linecap="round" stroke-linejoin="round"/>
<path d="M15.7782 42.0728C17.0277 42.0728 18.0407 40.3981 18.0407 38.3323C18.0407 36.2664 17.0277 34.5918 15.7782 34.5918C14.5287 34.5918 13.5156 36.2664 13.5156 38.3323C13.5156 40.3981 14.5287 42.0728 15.7782 42.0728Z" stroke="#212552" stroke-width="1.82463" stroke-miterlimit="10" stroke-linecap="round" stroke-linejoin="round"/>
<path d="M19.3538 38.332H15.6133" stroke="#212552" stroke-width="1.64217" stroke-miterlimit="10" stroke-linecap="round" stroke-linejoin="round"/>
<path d="M13.498 34.592H15.7788V31.6543L13.498 34.592Z" stroke="#212552" stroke-width="1.09478" stroke-miterlimit="10" stroke-linecap="round" stroke-linejoin="round"/>
<path d="M13.498 34.592H15.7788V31.6543L13.498 34.592Z" fill="#212552"/>
<path d="M13.498 42.0723H15.7788V45.0099L13.498 42.0723Z" fill="#212552"/>
<path d="M13.498 42.0723H15.7788V45.0099L13.498 42.0723Z" stroke="#212552" stroke-width="1.09478" stroke-miterlimit="10" stroke-linecap="round" stroke-linejoin="round"/>
<path d="M12.9149 42.0728C14.1644 42.0728 15.1774 40.3981 15.1774 38.3323C15.1774 36.2664 14.1644 34.5918 12.9149 34.5918C11.6652 34.5918 10.6523 36.2664 10.6523 38.3323C10.6523 40.3981 11.6652 42.0728 12.9149 42.0728Z" fill="#FFEA9E"/>
<path d="M12.7322 40.1571C13.3469 40.1571 13.8452 39.3402 13.8452 38.3324C13.8452 37.3247 13.3469 36.5078 12.7322 36.5078C12.1174 36.5078 11.6191 37.3247 11.6191 38.3324C11.6191 39.3402 12.1174 40.1571 12.7322 40.1571Z" fill="#FFE07D"/>
<path d="M12.9149 42.0728C14.1644 42.0728 15.1774 40.3981 15.1774 38.3323C15.1774 36.2664 14.1644 34.5918 12.9149 34.5918C11.6652 34.5918 10.6523 36.2664 10.6523 38.3323C10.6523 40.3981 11.6652 42.0728 12.9149 42.0728Z" stroke="#212552" stroke-width="1.09478" stroke-miterlimit="10" stroke-linecap="round" stroke-linejoin="round"/>
<path d="M32.911 62.8918L29.207 63.2567V13.207L32.911 13.572C34.097 13.6814 35.0459 14.758 35.0459 15.944V60.5015C35.0459 61.7058 34.097 62.7823 32.911 62.8918Z" fill="#CBEDF9"/>
<path opacity="0.23" d="M35.1568 32.238V27.0195H31.0879V32.5482H31.1061C31.1061 33.6794 32.0185 34.5918 33.1497 34.5918C34.281 34.5918 35.1933 33.6794 35.1933 32.5482C35.1933 32.4387 35.1751 32.3475 35.1568 32.238Z" fill="#0A1E2B" stroke="#0A1E2B" stroke-width="1.09478" stroke-miterlimit="10" stroke-linecap="round" stroke-linejoin="round"/>
<path d="M35.047 15.944V60.5015C35.047 61.4321 34.4814 62.2897 33.6968 62.6728C33.4778 62.7823 33.2224 62.8553 32.9669 62.8735L29.3906 63.2385V13.207L32.9669 13.572C33.2224 13.5902 33.4596 13.6632 33.6968 13.7727C34.4814 14.1741 35.047 15.0134 35.047 15.944Z" stroke="#212552" stroke-width="1.09478" stroke-miterlimit="10" stroke-linecap="round" stroke-linejoin="round"/>
<path d="M51.1582 57.3262L55.5738 61.7965" stroke="#212552" stroke-width="1.09478" stroke-miterlimit="10" stroke-linecap="round" stroke-linejoin="round"/>
<path d="M33.2037 24.6104C32.0725 24.6104 31.1602 25.5227 31.1602 26.6539C31.1602 27.7852 32.0725 28.6975 33.2037 28.6975H35.1926V24.6286H33.2037V24.6104Z" fill="#92D6E9"/>
<path d="M33.2037 24.6104C32.0725 24.6104 31.1602 25.5227 31.1602 26.6539C31.1602 27.7852 32.0725 28.6975 33.2037 28.6975H35.1926V24.6286H33.2037V24.6104Z" stroke="#212552" stroke-width="1.09478" stroke-miterlimit="10" stroke-linecap="round" stroke-linejoin="round"/>
<path d="M35.192 28.6975C36.3207 28.6975 37.2356 27.7825 37.2356 26.6539C37.2356 25.5252 36.3207 24.6104 35.192 24.6104C34.0633 24.6104 33.1484 25.5252 33.1484 26.6539C33.1484 27.7825 34.0633 28.6975 35.192 28.6975Z" fill="#CBEDF9"/>
<path d="M35.192 28.6975C36.3207 28.6975 37.2356 27.7825 37.2356 26.6539C37.2356 25.5252 36.3207 24.6104 35.192 24.6104C34.0633 24.6104 33.1484 25.5252 33.1484 26.6539C33.1484 27.7825 34.0633 28.6975 35.192 28.6975Z" stroke="#212552" stroke-width="1.09478" stroke-miterlimit="10" stroke-linecap="round" stroke-linejoin="round"/>
<path d="M35.192 28.6975C36.3207 28.6975 37.2356 27.7825 37.2356 26.6539C37.2356 25.5252 36.3207 24.6104 35.192 24.6104C34.0633 24.6104 33.1484 25.5252 33.1484 26.6539C33.1484 27.7825 34.0633 28.6975 35.192 28.6975Z" stroke="#212552" stroke-width="1.09478" stroke-miterlimit="10" stroke-linecap="round" stroke-linejoin="round"/>
<path opacity="0.23" d="M35.1568 55.5388V50.3203H31.0879V55.8489H31.1061C31.1061 56.9802 32.0185 57.8925 33.1497 57.8925C34.281 57.8925 35.1933 56.9802 35.1933 55.8489C35.1933 55.7395 35.1751 55.63 35.1568 55.5388Z" fill="#0A1E2B" stroke="#0A1E2B" stroke-width="1.09478" stroke-miterlimit="10" stroke-linecap="round" stroke-linejoin="round"/>
<path d="M33.2037 47.9111C32.0725 47.9111 31.1602 48.8235 31.1602 49.9547C31.1602 51.086 32.0725 51.9983 33.2037 51.9983H35.1926V47.9294H33.2037V47.9111Z" fill="#92D6E9"/>
<path d="M33.2037 47.9111C32.0725 47.9111 31.1602 48.8235 31.1602 49.9547C31.1602 51.086 32.0725 51.9983 33.2037 51.9983H35.1926V47.9294H33.2037V47.9111Z" stroke="#212552" stroke-width="1.09478" stroke-miterlimit="10" stroke-linecap="round" stroke-linejoin="round"/>
<path d="M35.192 51.9797C36.3207 51.9797 37.2356 51.0647 37.2356 49.9362C37.2356 48.8074 36.3207 47.8926 35.192 47.8926C34.0633 47.8926 33.1484 48.8074 33.1484 49.9362C33.1484 51.0647 34.0633 51.9797 35.192 51.9797Z" fill="#CBEDF9"/>
<path d="M35.192 51.9797C36.3207 51.9797 37.2356 51.0647 37.2356 49.9362C37.2356 48.8074 36.3207 47.8926 35.192 47.8926C34.0633 47.8926 33.1484 48.8074 33.1484 49.9362C33.1484 51.0647 34.0633 51.9797 35.192 51.9797Z" stroke="#212552" stroke-width="1.09478" stroke-miterlimit="10" stroke-linecap="round" stroke-linejoin="round"/>
<path d="M23.0029 51.5244C22.6015 51.5244 22.273 51.1959 22.273 50.7945V24.8847C22.273 24.4833 22.6015 24.1549 23.0029 24.1549H24.4991V22.5127H22.8204C21.6162 22.5127 20.6309 23.498 20.6309 24.7023V50.977C20.6309 52.1812 21.6162 53.1665 22.8204 53.1665H24.4991V51.5244H23.0029Z" fill="#92D6E9"/>
<path d="M24.7365 54.1514C25.2102 54.1514 25.5941 53.2854 25.5941 52.2173C25.5941 51.1492 25.2102 50.2832 24.7365 50.2832C24.2628 50.2832 23.8789 51.1492 23.8789 52.2173C23.8789 53.2854 24.2628 54.1514 24.7365 54.1514Z" fill="#212552"/>
<path d="M23.0029 51.5244C22.6015 51.5244 22.273 51.1959 22.273 50.7945V24.8847C22.273 24.4833 22.6015 24.1549 23.0029 24.1549H24.4991V22.5127H22.8204C21.6162 22.5127 20.6309 23.498 20.6309 24.7023V50.977C20.6309 52.1812 21.6162 53.1665 22.8204 53.1665H24.4991V51.5244H23.0029Z" stroke="#212552" stroke-width="1.09478" stroke-miterlimit="10" stroke-linecap="round" stroke-linejoin="round"/>
<path d="M55.6648 69.2592H8.22431C4.19187 69.2592 0.925781 65.9931 0.925781 61.9607V14.5202C0.925781 10.4878 4.19187 7.22168 8.22431 7.22168H55.6648C59.6972 7.22168 62.9633 10.4878 62.9633 14.5202V61.9607C62.9633 65.9931 59.6972 69.2592 55.6648 69.2592Z" stroke="#212552" stroke-width="1.09478" stroke-miterlimit="10" stroke-linecap="round" stroke-linejoin="round"/>
<path opacity="0.23" d="M24.5547 24.9209L24.7372 57.3264" stroke="#0A1E2B" stroke-width="1.45971" stroke-miterlimit="10" stroke-linecap="round" stroke-linejoin="round"/>
<path d="M24.3906 9.81291L27.2188 9.72168" stroke="#212552" stroke-width="1.09478" stroke-miterlimit="10" stroke-linecap="round" stroke-linejoin="round"/>
<path d="M24.6465 66.6504L27.2557 66.7234" stroke="#212552" stroke-width="1.09478" stroke-miterlimit="10" stroke-linecap="round" stroke-linejoin="round"/>
</svg>
