<svg width="74" height="73" viewBox="0 0 74 73" fill="none" xmlns="http://www.w3.org/2000/svg">
<path d="M72.1431 35.9227C72.1431 40.5378 71.2339 45.1077 69.4675 49.3714C67.701 53.6351 65.1119 57.5091 61.8481 60.772C58.5842 64.0349 54.7095 66.6229 50.4453 68.3881C46.1811 70.1534 41.6109 71.0612 36.9958 71.0599C36.4816 71.0599 35.9875 71.0599 35.4531 71.0599H35.1507C28.0425 70.7035 21.2136 68.1809 15.5807 63.8308L15.2984 63.6191C14.7741 63.2057 14.2901 62.7722 13.7659 62.3386C7.15193 56.5494 2.94721 48.4921 1.98085 39.7557C1.0145 31.0193 3.35666 22.2379 8.54545 15.1431C13.7343 8.04842 21.3931 3.15536 30.0115 1.4289C38.63 -0.297559 47.5826 1.26789 55.1038 5.81654C56.0112 6.36099 56.8884 6.94577 57.7353 7.5608L57.8664 7.65154C61.107 10.0462 63.9164 12.975 66.1743 16.3123C68.5913 19.8845 70.3246 23.8741 71.2861 28.0785C71.3869 28.5121 71.4776 28.9557 71.5583 29.3993C71.9557 31.5509 72.1515 33.7348 72.1431 35.9227Z" fill="#12B76A"/>
<path d="M54.9946 26.7545C54.8429 27.2123 54.6011 27.6351 54.2836 27.9981L36.2001 49.6983C35.8784 50.0842 35.4798 50.3988 35.0298 50.6222C34.5797 50.8455 34.0881 50.9726 33.5862 50.9954C33.0843 51.0182 32.5832 50.9362 32.1147 50.7546C31.6463 50.573 31.2208 50.2957 30.8655 49.9406L20.0154 39.0905C19.3566 38.4084 18.992 37.4948 19.0003 36.5465C19.0085 35.5982 19.3889 34.6911 20.0594 34.0205C20.73 33.35 21.6371 32.9696 22.5854 32.9614C23.5337 32.9531 24.4473 33.3177 25.1294 33.9765L33.1765 42.0273L48.7284 23.3687C49.0281 22.9909 49.4004 22.6769 49.8233 22.4451C50.2462 22.2133 50.7112 22.0685 51.1909 22.019C51.6706 21.9696 52.1554 22.0166 52.6167 22.1573C53.0779 22.298 53.5064 22.5295 53.8769 22.8383C54.2474 23.147 54.5524 23.5267 54.7739 23.9551C54.9955 24.3834 55.1292 24.8517 55.1671 25.3325C55.205 25.8133 55.1463 26.2968 54.9946 26.7545Z" fill="white"/>
<path d="M2.20109 42.124C1.95644 42.1264 1.71926 42.0398 1.53376 41.8802C1.34826 41.7207 1.22709 41.4992 1.19285 41.2569C0.959256 39.5562 0.841357 37.8416 0.839966 36.1249C0.839966 35.8575 0.946191 35.6011 1.13527 35.412C1.32436 35.2229 1.58081 35.1167 1.84821 35.1167C2.11561 35.1167 2.37206 35.2229 2.56114 35.412C2.75023 35.6011 2.85645 35.8575 2.85645 36.1249C2.85617 37.7472 2.96734 39.3676 3.18917 40.9746C3.22768 41.2319 3.16525 41.4941 3.01493 41.7064C2.86461 41.9187 2.63804 42.0647 2.38258 42.1139L2.20109 42.124Z" fill="#04050F"/>
<path d="M4.085 49.5039C3.88071 49.5025 3.68166 49.4391 3.51422 49.3221C3.34677 49.2051 3.21883 49.0399 3.14733 48.8486C2.69388 47.6396 2.3035 46.4079 1.97777 45.1584C1.94443 45.0299 1.93678 44.8962 1.95524 44.7648C1.97371 44.6334 2.01793 44.5069 2.08537 44.3927C2.15281 44.2784 2.24215 44.1785 2.34826 44.0989C2.45436 44.0192 2.57515 43.9612 2.7037 43.9283C2.83214 43.895 2.9659 43.8873 3.0973 43.9058C3.2287 43.9243 3.35516 43.9685 3.46944 44.0359C3.58372 44.1034 3.68356 44.1927 3.76323 44.2988C3.84291 44.4049 3.90086 44.5257 3.93376 44.6543C4.24048 45.835 4.60729 46.9994 5.03274 48.1428C5.12459 48.3916 5.11471 48.6665 5.00526 48.9081C4.8958 49.1497 4.69558 49.3384 4.44796 49.4333C4.33294 49.481 4.2095 49.505 4.085 49.5039Z" fill="#04050F"/>
<path d="M36.9944 72.2702C36.46 72.2702 35.9156 72.2702 35.3913 72.2702H35.0485C27.7503 71.9026 20.7404 69.3055 14.9643 64.8294L14.7122 64.6479C14.1274 64.1942 13.6132 63.7505 13.099 63.3069C10.4253 60.9512 8.1149 58.2127 6.24298 55.1805C5.60504 54.1435 5.02279 53.0732 4.49872 51.9743C4.4286 51.8547 4.3839 51.7219 4.3674 51.5843C4.35091 51.4466 4.36298 51.3071 4.40286 51.1743C4.44274 51.0415 4.50957 50.9184 4.59918 50.8126C4.68879 50.7068 4.79925 50.6207 4.92366 50.5595C5.04807 50.4983 5.18376 50.4635 5.32225 50.4571C5.46073 50.4508 5.59904 50.473 5.72853 50.5226C5.85803 50.5721 5.97592 50.6477 6.07484 50.7449C6.17377 50.842 6.2516 50.9585 6.30347 51.087C6.8076 52.0953 7.31172 53.1035 7.95699 54.0613C9.73676 56.9298 11.9355 59.516 14.4803 61.7341C14.9643 62.1474 15.4886 62.5709 15.9624 62.9843L16.2447 63.1859C21.709 67.4268 28.3423 69.8901 35.2501 70.2436H35.5022H37.0448C46.0844 70.2223 54.7471 66.6198 61.1362 60.225C67.5254 53.8303 71.1202 45.1643 71.1335 36.1247C71.1345 33.9863 70.9319 31.8526 70.5285 29.7526C70.4479 29.3191 70.3672 28.8855 70.2664 28.4721C69.3454 24.4138 67.6806 20.5612 65.3562 17.1093L65.2957 17.0185C63.1212 13.7952 60.4141 10.9654 57.2903 8.6501L57.1391 8.54928C56.2518 7.87711 55.3847 7.30242 54.5378 6.82518C49.7652 3.96677 44.3663 2.318 38.811 2.02234C33.2558 1.72668 27.7124 2.79309 22.6634 5.12878C17.6143 7.46447 13.2125 10.9987 9.84108 15.4238C6.46964 19.8489 4.2307 25.0309 3.31908 30.5189C3.23579 30.733 3.08189 30.9122 2.88285 31.0269C2.68381 31.1416 2.45157 31.1849 2.22457 31.1496C1.99758 31.1143 1.78944 31.0026 1.63461 30.8329C1.47978 30.6632 1.38754 30.4457 1.37317 30.2164C2.34276 24.411 4.71423 18.9298 8.28182 14.2484C11.8494 9.56706 16.5054 5.82688 21.8458 3.35237C27.1862 0.87787 33.0497 -0.25621 38.9277 0.0485233C44.8056 0.353257 50.5204 2.0876 55.5763 5.10109C56.4736 5.64554 57.3911 6.25048 58.2784 6.89576L58.4195 6.99658C61.7276 9.43235 64.5982 12.412 66.9089 15.8086L66.9795 15.9094C69.4732 19.5788 71.2583 23.6824 72.2425 28.0084C72.3434 28.452 72.4442 28.9057 72.5248 29.3695C72.9438 31.5935 73.1564 33.8515 73.16 36.1146C73.1494 45.7021 69.3353 54.8938 62.555 61.6722C55.7746 68.4507 46.5819 72.2622 36.9944 72.2702Z" fill="#04050F"/>
</svg>
